<?xml version="1.0" standalone="no"?>
<!DOCTYPE svg PUBLIC "-//W3C//DTD SVG 20010904//EN"
 "http://www.w3.org/TR/2001/REC-SVG-20010904/DTD/svg10.dtd">
<svg version="1.0" xmlns="http://www.w3.org/2000/svg"
 width="1500.000000pt" height="1313.000000pt" viewBox="0 0 1500.000000 1313.000000"
 preserveAspectRatio="xMidYMid meet">
<metadata>
Created by potrace 1.16, written by Peter Selinger 2001-2019
</metadata>
<g transform="translate(0.000000,1313.000000) scale(0.100000,-0.100000)"
fill="#000000" stroke="none">
<path d="M7125 12084 c-1496 -112 -2827 -778 -3812 -1909 -228 -262 -458 -589
-637 -908 -385 -684 -615 -1440 -687 -2262 -19 -212 -16 -724 5 -935 62 -637
210 -1202 461 -1767 15 -35 31 -60 36 -57 5 3 6 -1 3 -9 -16 -42 421 -803 449
-782 4 3 5 2 2 -1 -5 -8 11 -39 43 -82 21 -28 26 -30 36 -16 10 13 12 13 12
-5 0 -11 -4 -17 -8 -15 -14 9 -9 -7 12 -37 14 -18 27 -26 38 -23 14 5 14 4 3
-4 -12 -8 -4 -24 43 -81 31 -39 61 -69 66 -66 6 3 7 0 5 -7 -7 -18 63 -100 77
-92 7 4 8 2 4 -5 -9 -13 52 -89 152 -191 36 -36 72 -76 81 -90 16 -24 16 -22
22 65 l5 90 2 -91 2 -91 59 -61 c55 -59 81 -75 81 -51 0 5 -4 8 -9 5 -17 -11
-35 26 -34 67 l2 42 -13 -40 c-11 -36 -13 -25 -12 113 1 107 4 152 12 152 17
0 24 26 11 39 -16 16 -54 13 -61 -5 -3 -9 -6 -72 -6 -141 0 -118 1 -125 18
-112 15 13 16 12 4 -3 -8 -9 -10 -23 -6 -30 4 -7 -2 -4 -14 6 -21 18 -22 27
-19 147 1 71 -2 129 -6 129 -5 0 5 11 22 25 29 25 31 25 60 11 16 -9 33 -21
37 -28 4 -7 7 -67 5 -133 -1 -67 1 -133 4 -147 l6 -25 160 1 c87 1 159 4 159
9 0 4 19 8 43 8 30 1 20 4 -32 9 -40 5 -78 13 -84 19 -6 6 -29 11 -52 12 -30
1 -34 3 -17 7 22 7 22 8 4 23 -10 8 -26 18 -35 22 -9 3 -17 11 -17 18 0 10
-15 30 -61 87 -17 20 -30 169 -17 200 6 15 15 38 21 52 26 67 50 98 101 133
72 50 143 65 233 50 52 -9 69 -9 75 0 4 7 1 17 -7 23 -8 6 -15 14 -15 18 0 13
-57 65 -64 59 -3 -3 -9 3 -13 13 -8 21 -63 80 -63 68 0 -10 -29 22 -59 65 -18
24 -21 35 -12 41 7 4 11 9 10 11 -2 2 6 14 16 27 20 22 45 30 45 13 0 -5 10
-13 23 -17 12 -4 109 -93 215 -199 108 -108 203 -196 217 -199 16 -4 44 2 76
15 66 29 102 19 107 -28 3 -30 -21 -73 -41 -73 -5 0 -15 -6 -22 -14 -16 -16
-164 -32 -174 -19 -3 4 -22 16 -42 26 -20 11 -42 29 -48 41 -15 27 -49 50 -48
33 1 -53 -8 -68 -99 -161 -86 -88 -95 -101 -88 -125 14 -51 12 -58 -13 -53
-22 4 -23 6 -8 22 30 34 12 42 -25 10 -13 -11 -27 -20 -33 -20 -5 0 -7 -6 -4
-14 3 -7 0 -19 -6 -25 -8 -8 -8 -11 1 -11 7 0 12 5 12 11 0 6 21 9 53 8 90 -5
147 42 161 133 6 39 43 88 66 88 5 0 20 -11 34 -24 21 -19 26 -33 26 -70 0
-51 -42 -153 -66 -163 -20 -8 -17 -41 6 -60 11 -10 20 -22 20 -28 1 -10 80
-51 93 -47 4 1 7 -4 7 -12 0 -8 18 -22 40 -32 22 -10 40 -21 40 -25 0 -4 35
-34 77 -66 43 -32 80 -61 81 -65 2 -5 8 -8 14 -8 6 0 25 -10 42 -23 17 -13 39
-26 49 -30 9 -3 17 -11 17 -17 0 -5 9 -10 20 -10 11 0 20 -4 20 -10 0 -5 6
-10 13 -10 7 0 27 -13 45 -30 18 -16 37 -30 42 -30 5 0 29 -13 53 -30 25 -16
50 -30 56 -30 6 0 11 -4 11 -10 0 -5 8 -10 18 -10 10 0 22 -4 27 -9 8 -8 47
-30 183 -100 107 -56 335 -161 395 -182 20 -7 37 -17 37 -21 0 -4 9 -8 21 -8
12 0 35 -6 52 -13 37 -16 62 -25 216 -78 62 -22 121 -37 131 -34 10 3 45 33
79 66 33 33 65 58 71 54 14 -9 12 -25 -3 -25 -13 0 -36 -24 -166 -165 -44 -48
-61 -84 -60 -128 l1 -32 8 32 c20 85 94 168 147 165 32 -3 73 22 73 43 0 6 9
16 20 23 21 13 27 47 10 57 -13 8 -13 35 0 35 6 0 10 -7 10 -15 0 -8 7 -15 16
-15 12 0 15 -6 10 -23 -3 -12 -6 -27 -6 -34 0 -6 -16 -27 -35 -47 -19 -19 -31
-37 -27 -40 19 -12 170 -46 202 -46 20 0 51 -7 69 -16 44 -22 50 -10 12 25
-17 16 -31 33 -31 38 0 5 -10 15 -22 23 -12 8 -28 23 -37 32 -32 35 -58 61
-159 158 -93 89 -103 103 -105 137 -2 29 2 38 16 41 14 3 16 0 8 -22 -9 -22
-5 -30 35 -68 25 -24 71 -70 102 -102 32 -32 90 -91 131 -130 41 -39 84 -82
95 -94 53 -60 145 -132 160 -126 34 13 14 48 -93 157 -60 62 -112 123 -116
136 -4 14 -8 50 -8 80 0 71 28 128 85 170 37 28 50 31 110 31 38 0 83 -6 101
-14 18 -8 79 -62 137 -120 58 -58 110 -106 116 -106 7 0 21 8 33 17 l22 18
-36 38 c-19 20 -37 37 -39 37 -6 0 -116 110 -116 116 0 2 -8 12 -18 22 -74 70
-223 87 -322 36 -75 -38 -150 -153 -150 -231 0 -13 -1 -23 -3 -23 -8 0 -167
165 -167 173 0 5 -7 7 -15 4 -8 -4 -17 -2 -20 4 -4 5 2 12 11 16 10 4 19 2 22
-5 2 -7 8 -12 14 -12 5 0 36 -28 69 -62 56 -60 59 -62 73 -43 8 11 17 32 20
46 9 47 92 131 161 163 51 24 125 40 125 28 0 -4 15 -7 33 -7 17 0 42 -4 55
-8 12 -5 22 -5 22 0 0 14 -106 123 -113 116 -4 -3 -10 3 -14 13 -8 23 -54 70
-68 71 -16 0 -38 70 -31 97 3 14 27 44 52 68 26 24 65 62 86 85 22 23 54 47
71 54 18 7 35 17 38 21 9 13 128 28 174 22 22 -3 53 -11 69 -17 24 -9 31 -8
42 8 14 18 14 18 14 -1 0 -20 369 -394 389 -394 6 0 15 9 21 20 13 25 4 43
-50 95 -23 22 -52 51 -64 64 -11 12 -30 30 -40 40 -11 9 -29 27 -40 40 -12 12
-30 30 -40 40 -26 22 -45 42 -82 84 -17 19 -42 38 -55 42 -23 8 -23 8 -4 15
13 5 29 1 45 -11 41 -29 110 -98 110 -109 0 -6 7 -13 16 -17 21 -8 64 -51 64
-64 0 -5 7 -12 16 -16 19 -7 64 -51 64 -62 0 -10 76 -71 89 -71 14 0 14 17 1
25 -6 4 -10 62 -10 141 0 75 -5 144 -10 155 -10 17 -23 19 -156 19 -139 0
-147 1 -165 22 -22 28 -24 61 -4 78 10 8 65 13 167 15 l153 3 6 144 c8 183 10
188 63 188 38 0 43 -3 54 -33 7 -19 12 -85 12 -154 0 -67 3 -129 6 -138 6 -14
26 -16 155 -14 81 0 152 -2 157 -5 6 -3 15 -19 20 -35 9 -24 6 -32 -15 -55
-25 -27 -25 -27 -161 -26 -75 1 -143 1 -149 0 -10 0 -13 -37 -13 -147 -1 -168
-7 -185 -63 -185 -48 0 -65 -12 -48 -32 11 -13 11 -19 0 -33 -21 -29 -42 -43
-61 -43 -10 0 -69 52 -132 115 -96 95 -116 111 -121 95 -3 -10 1 -30 10 -44 9
-13 12 -27 7 -30 -5 -3 -12 -31 -16 -62 -7 -58 -29 -114 -46 -114 -6 0 -10 -9
-10 -19 0 -18 -17 -38 -85 -96 -28 -24 -29 -27 -12 -39 9 -7 17 -16 17 -19 0
-4 12 -20 28 -36 55 -60 56 -61 46 -100 -8 -32 -14 -37 -51 -45 -34 -7 -43
-13 -43 -30 0 -26 -70 -70 -78 -48 -2 6 -10 12 -17 12 -7 0 -24 13 -38 29 -14
17 -27 27 -31 24 -3 -3 -9 3 -13 13 -9 25 -59 75 -67 67 -3 -3 -10 6 -15 21
-6 14 -14 26 -19 26 -4 0 -19 10 -31 21 -19 18 -36 22 -90 23 -45 0 -73 -5
-85 -14 -41 -35 -82 -77 -93 -98 -15 -26 -17 -108 -3 -117 6 -3 10 -14 10 -25
0 -10 7 -20 15 -24 8 -3 15 -11 15 -18 0 -7 44 -56 98 -109 123 -124 125 -126
112 -141 -5 -7 -20 -26 -31 -41 -15 -20 -25 -25 -32 -18 -6 6 -22 11 -35 11
-14 0 -31 8 -38 18 -10 12 -13 13 -14 3 0 -7 10 -22 22 -32 21 -19 21 -19 1
-19 -16 0 -22 -8 -26 -36 -3 -19 -22 -57 -41 -85 -20 -27 -36 -54 -36 -59 0
-6 -7 -10 -15 -10 -8 0 -48 -34 -89 -75 -41 -41 -83 -75 -94 -75 -10 0 -25 -6
-33 -12 -8 -7 -13 -12 -11 -12 2 1 28 -5 59 -13 31 -8 67 -12 80 -8 16 4 22 2
18 -5 -3 -5 -3 -10 2 -10 4 0 49 -7 98 -15 592 -99 1271 -101 1835 -4 862 148
1594 453 2324 969 253 179 616 503 851 760 272 297 589 740 746 1040 19 36 36
67 39 70 13 12 123 236 170 345 28 66 56 128 61 139 17 30 114 293 154 416
139 432 216 820 255 1293 19 219 11 915 -9 903 -3 -2 -7 30 -8 71 -3 146 -94
685 -101 603 -2 -19 2 -52 9 -72 7 -21 9 -41 6 -45 -4 -3 -7 3 -7 15 0 11 -5
24 -11 28 -8 4 -10 33 -7 83 3 42 0 96 -7 121 -11 44 -12 44 -17 16 -3 -17 -2
-40 2 -51 5 -12 5 -46 0 -76 l-8 -54 -2 45 -3 45 -7 -58 c-7 -54 -37 -107 -61
-107 -17 0 -61 -55 -61 -75 0 -30 -90 -64 -114 -44 -8 7 -13 20 -11 29 5 19
-29 45 -38 30 -3 -6 -3 -10 2 -10 4 0 7 -38 5 -85 l-3 -85 -80 0 -79 0 0 43
c0 47 -9 87 -19 87 -4 0 -18 -18 -31 -41 -14 -23 -36 -51 -49 -63 -13 -11 -29
-27 -37 -33 -7 -7 -17 -13 -23 -13 -6 0 -11 -9 -11 -20 0 -11 7 -20 15 -20 8
0 15 -6 15 -12 0 -7 18 -31 40 -53 31 -32 39 -48 40 -77 0 -34 -3 -38 -37 -47
-21 -6 -44 -11 -50 -11 -7 0 -13 -9 -13 -19 0 -19 -47 -61 -69 -61 -21 0 -11
20 19 35 17 9 30 21 30 28 -1 12 -55 77 -65 77 -2 0 -40 35 -82 78 -43 43 -91
87 -107 96 -60 37 -194 38 -266 1 -23 -12 -80 -64 -107 -98 -16 -20 -43 -103
-43 -132 0 -14 -1 -25 -2 -25 -2 0 -45 41 -96 90 -51 50 -97 90 -102 90 -11 0
-40 -29 -40 -40 0 -4 21 -28 46 -52 25 -23 71 -69 103 -102 127 -131 328 -329
352 -347 21 -15 29 -16 36 -6 23 29 22 48 -3 70 -75 63 -197 195 -210 225 -35
84 -1 193 78 251 38 28 49 31 114 31 60 0 77 -4 110 -26 42 -28 224 -204 224
-216 0 -16 -22 -7 -49 21 -16 16 -32 27 -35 24 -3 -3 -9 3 -13 13 -8 23 -84
98 -107 107 -9 4 -16 10 -16 15 0 17 -60 35 -114 35 -52 0 -61 -4 -107 -45
-10 -10 -23 -18 -27 -18 -15 0 -42 -76 -42 -117 0 -43 22 -108 33 -97 4 4 10
-2 13 -12 4 -10 51 -63 106 -117 54 -54 98 -102 98 -107 0 -5 -5 -12 -10 -15
-6 -4 -8 -11 -4 -16 9 -16 -37 -44 -65 -40 -16 2 -78 57 -181 162 -86 87 -161
159 -168 159 -7 0 -12 5 -12 11 0 5 -35 45 -77 89 -95 95 -107 110 -93 110 6
0 9 8 6 18 -4 13 1 22 16 30 60 29 64 27 138 -49 67 -69 71 -72 84 -53 8 10
17 31 20 45 8 44 91 130 151 158 46 22 135 42 135 31 0 -4 15 -8 34 -8 19 0
43 -3 55 -7 29 -9 27 9 -4 33 -14 11 -25 25 -25 32 0 7 -6 10 -14 7 -8 -3 -13
1 -12 11 0 10 -6 16 -16 16 -11 -1 -14 4 -11 14 5 10 2 13 -6 8 -8 -5 -14 0
-18 13 -4 17 -10 20 -27 15 -17 -6 -19 -4 -9 8 10 11 9 17 -5 29 -9 8 -21 14
-27 14 -15 0 -38 72 -31 99 3 14 27 44 53 68 25 24 62 60 82 81 53 58 142 106
193 107 60 0 149 -14 174 -28 20 -11 22 -9 29 24 3 20 5 38 3 40 -2 2 -24 -3
-49 -10 l-45 -14 -21 32 c-17 24 -20 39 -14 66 4 19 12 35 18 35 6 0 15 3 19
7 4 4 18 5 30 2 18 -5 24 -2 24 10 0 16 -34 110 -50 138 -6 10 -10 27 -10 37
0 11 -4 23 -10 26 -5 3 -10 15 -10 26 0 10 -4 27 -9 37 -5 9 -19 42 -32 72
-38 94 -127 278 -235 492 -19 37 -39 70 -44 73 -6 3 -10 15 -10 26 0 10 -4 19
-10 19 -5 0 -10 4 -10 10 0 5 -21 44 -47 85 -58 92 -79 126 -118 191 -16 27
-32 51 -35 54 -13 10 -90 119 -90 127 0 5 -9 14 -20 21 -11 7 -20 19 -20 27 0
8 -4 15 -10 15 -5 0 -10 7 -10 16 0 9 -20 35 -45 58 -25 24 -45 47 -45 52 -1
14 -47 64 -60 64 -5 0 -10 6 -10 13 0 18 -24 67 -32 67 -5 0 -8 18 -8 40 0 36
-2 40 -25 40 -15 0 -25 6 -25 14 0 8 -5 18 -12 22 -8 5 -9 -2 -5 -24 5 -24 3
-32 -8 -32 -16 0 -20 -16 -6 -24 10 -7 2 -148 -10 -160 -5 -6 -9 -20 -9 -32 0
-13 -4 -25 -8 -28 -5 -3 -26 -35 -47 -71 -21 -36 -41 -63 -43 -60 -3 3 -18 -7
-33 -21 -31 -30 -26 -31 -159 29 -123 55 -300 201 -300 247 0 19 2 20 15 10 8
-7 15 -16 15 -20 0 -14 58 -67 79 -73 42 -11 221 46 246 79 6 7 21 15 35 16
38 5 108 51 102 67 -3 8 0 11 7 7 6 -4 29 6 51 21 29 22 36 33 29 44 -5 7 -9
26 -9 42 0 15 -3 27 -8 27 -4 0 -18 23 -31 50 -13 28 -28 50 -32 50 -5 0 -9 7
-9 15 0 8 -4 15 -10 15 -14 0 -12 -28 3 -33 6 -2 9 -8 5 -12 -10 -10 -68 17
-68 32 0 7 9 13 20 13 31 0 24 23 -16 56 -20 16 -42 35 -49 42 -25 22 -35 14
-30 -25 15 -125 16 -184 1 -268 -21 -116 -44 -185 -62 -185 -8 0 -14 5 -14 10
0 6 4 10 8 10 12 0 33 88 26 114 -3 13 -28 47 -56 76 l-49 51 -57 -16 c-31 -9
-72 -23 -90 -31 -18 -8 -37 -12 -40 -10 -9 6 -155 -66 -172 -84 -3 -3 -21 -17
-40 -30 -94 -66 -96 -75 -45 -177 34 -67 93 -136 166 -195 31 -25 32 -27 12
-28 -13 0 -23 3 -23 8 0 4 -15 16 -33 25 -43 23 -135 146 -159 211 -10 28 -21
82 -24 121 -6 72 12 215 27 215 5 0 9 6 9 13 0 38 102 167 132 167 8 0 24 14
37 30 12 17 26 28 30 26 4 -3 17 1 27 9 10 8 27 15 36 15 9 0 18 5 20 12 3 7
41 11 114 12 89 1 120 -3 169 -21 86 -31 128 -54 167 -88 18 -17 47 -40 64
-53 21 -14 34 -33 38 -56 4 -19 13 -39 21 -46 8 -7 15 -20 15 -29 0 -20 19
-41 37 -41 9 0 13 16 13 54 0 34 5 56 13 59 10 4 10 6 0 6 -7 1 -13 8 -13 17
0 10 6 14 15 10 35 -13 9 21 -84 112 -55 53 -105 108 -111 122 -6 14 -20 41
-30 60 -15 27 -19 56 -20 133 0 53 4 97 9 97 5 0 12 12 15 26 4 14 19 38 35
53 15 15 26 32 23 39 -2 7 2 10 12 6 18 -7 22 -24 6 -24 -6 0 -25 -24 -44 -53
-46 -71 -57 -162 -30 -239 16 -42 40 -73 133 -165 62 -62 117 -113 122 -113 5
0 9 7 9 15 0 8 -6 15 -13 15 -19 0 -87 65 -87 84 0 9 -6 16 -14 16 -17 0 -28
24 -20 45 7 17 20 20 29 6 3 -6 -3 -15 -12 -21 -15 -9 -13 -10 10 -5 19 4 26
2 22 -4 -3 -7 0 -8 9 -5 9 3 16 1 16 -5 0 -5 9 -19 21 -30 19 -17 19 -20 4
-29 -16 -8 -15 -10 4 -15 12 -3 19 -1 15 4 -3 5 2 9 10 9 19 0 30 -17 16 -25
-15 -9 -2 -25 14 -19 8 3 27 -1 43 -9 43 -22 120 -32 138 -17 8 7 24 10 34 7
13 -3 33 7 59 29 31 26 42 30 52 21 7 -7 5 0 -5 16 -9 15 -21 27 -25 27 -5 0
-22 -14 -39 -31 -49 -49 -137 -64 -206 -35 -38 16 -235 210 -235 231 0 7 -7
19 -16 26 -13 11 -15 25 -10 73 7 65 47 142 68 130 7 -4 8 -3 4 4 -12 19 6 14
31 -10 13 -12 23 -17 22 -12 0 5 -45 47 -99 94 -93 79 -132 107 -116 82 3 -6
2 -13 -3 -16 -5 -4 -8 2 -7 11 2 10 -9 29 -23 42 -29 27 -187 147 -266 202
-27 19 -68 48 -92 66 -23 17 -102 68 -174 113 -717 444 -1487 709 -2339 806
-128 14 -826 28 -955 18z m952 -596 c-2 -7 -10 -12 -16 -10 -6 1 -11 -4 -11
-11 0 -8 -9 -22 -20 -32 -11 -10 -20 -28 -20 -40 0 -33 489 -525 522 -525 22
0 48 31 48 58 0 11 -110 122 -121 122 -22 0 -5 31 44 76 65 62 117 127 117
148 0 9 5 16 10 16 6 0 10 20 10 45 0 41 -2 45 -25 45 -14 0 -25 4 -25 8 0 5
17 8 38 8 37 -2 37 -2 40 -48 4 -69 -45 -170 -109 -223 -69 -57 -70 -66 -10
-124 28 -27 51 -55 52 -63 5 -62 -22 -98 -73 -98 -22 0 -29 -4 -25 -15 8 -19
-23 -56 -48 -57 -28 -1 -75 19 -75 33 0 14 -56 70 -64 62 -3 -3 -9 3 -13 13
-9 25 -59 75 -67 67 -3 -3 -8 1 -12 10 -17 46 -114 70 -185 45 -53 -18 -113
-93 -122 -152 -10 -64 22 -118 139 -233 81 -79 104 -108 104 -129 0 -27 -32
-64 -56 -64 -20 0 -84 32 -84 43 0 4 -102 110 -226 235 -124 124 -230 236
-235 249 -6 17 -3 29 15 50 23 26 25 27 64 14 25 -9 53 -30 77 -57 20 -25 41
-42 46 -39 5 4 9 -1 9 -9 0 -32 27 -15 39 24 6 22 16 40 21 40 6 0 10 6 10 13
1 24 67 86 121 114 48 25 65 28 151 28 53 0 101 5 105 9 4 5 1 7 -8 3 -11 -4
-16 0 -15 11 1 10 -6 16 -16 16 -10 -1 -15 2 -13 7 7 11 -33 51 -44 44 -5 -2
-8 3 -7 13 0 10 -6 17 -16 16 -11 -1 -14 4 -11 14 4 10 2 13 -5 8 -7 -4 -15 0
-19 11 -4 10 -15 27 -25 38 -16 17 -20 18 -29 5 -8 -12 -9 -10 -4 6 3 14 -1
28 -11 38 -15 15 -15 19 0 50 9 19 16 39 16 45 0 6 6 11 14 11 8 0 16 7 20 15
3 8 13 15 22 15 8 0 14 -6 11 -12z m173 -18 c13 -9 13 -10 0 -10 -8 0 -33 -15
-54 -33 l-39 -33 112 -112 c61 -62 114 -112 117 -112 15 0 101 100 121 141 19
38 21 51 13 80 -6 18 -10 35 -10 37 0 1 9 -2 20 -8 48 -26 13 -131 -75 -223
l-65 -67 -35 27 c-19 16 -35 31 -35 34 0 9 -166 172 -190 187 -13 8 -26 9 -38
3 -14 -7 -17 -4 -18 21 -1 16 2 24 6 18 10 -16 80 -2 80 16 0 8 5 14 10 14 6
0 9 3 9 8 -1 4 -1 10 0 15 2 10 53 8 71 -3z m-562 -712 c19 -16 14 -56 -10
-91 -30 -43 -144 -157 -156 -157 -6 0 -13 -13 -17 -29 -7 -34 9 -65 42 -80 30
-14 47 -4 130 76 35 35 75 66 88 69 14 3 25 9 25 13 0 3 19 6 43 5 43 -2 107
-27 107 -43 0 -4 11 -13 23 -20 13 -7 31 -30 40 -50 19 -41 23 -121 7 -121 -5
0 -10 -9 -10 -20 0 -12 -41 -60 -102 -121 -131 -129 -135 -132 -175 -117 -42
16 -50 50 -22 90 26 35 113 123 153 153 15 12 29 34 32 54 6 28 3 38 -16 53
-12 10 -28 18 -36 18 -7 0 -45 -30 -83 -66 -38 -36 -82 -73 -98 -81 -27 -15
-138 -22 -150 -9 -10 9 -43 7 -43 -3 0 -5 9 -12 20 -16 22 -7 78 -83 100 -135
20 -49 18 -176 -4 -234 -10 -25 -22 -46 -27 -46 -5 0 -9 -5 -9 -11 0 -19 -71
-78 -119 -100 -32 -14 -68 -20 -131 -21 -74 -1 -93 2 -128 22 -23 13 -42 27
-42 32 0 4 -7 5 -15 2 -8 -4 -15 -2 -15 3 0 14 -106 123 -119 123 -6 0 -11 6
-11 14 0 12 -30 32 -34 24 -1 -2 -9 -20 -19 -40 -9 -21 -21 -38 -27 -38 -5 0
-7 -6 -4 -14 3 -8 0 -24 -6 -36 -7 -14 -9 -40 -5 -72 7 -49 13 -56 121 -164
118 -117 129 -137 104 -185 -14 -25 -75 -27 -88 -2 -5 9 -16 14 -25 10 -11 -4
-14 0 -10 16 3 17 2 18 -5 7 -5 -8 -12 -49 -15 -90 -7 -85 -25 -127 -82 -187
-58 -60 -131 -88 -230 -87 -108 0 -152 24 -286 157 -130 129 -159 181 -159
290 0 56 6 84 25 125 35 76 63 112 99 129 17 8 45 22 61 31 19 10 62 17 115
19 103 5 131 -10 133 -70 2 -59 -25 -79 -100 -75 -34 1 -65 -1 -69 -5 -4 -4
-17 -7 -28 -7 -13 0 -34 -18 -53 -44 -29 -37 -33 -51 -33 -102 0 -69 17 -95
145 -218 84 -81 112 -93 187 -83 32 4 52 16 87 51 l46 46 0 82 0 82 38 16 c20
8 36 18 34 22 -1 4 -23 29 -48 55 -66 70 -93 145 -86 234 3 38 13 84 21 101 9
17 16 37 16 44 0 17 65 69 87 69 12 0 20 10 23 29 4 22 14 33 38 43 l33 14 93
-93 c127 -129 149 -146 198 -158 88 -20 103 -15 179 61 39 40 54 92 42 150 -9
49 -27 73 -131 176 -115 115 -131 152 -83 190 27 21 47 14 100 -33 32 -29 51
-40 51 -31 0 9 -5 17 -11 19 -6 2 -13 31 -16 65 -5 51 -2 69 16 105 24 46 183
214 216 228 21 9 52 4 73 -12z m2895 -815 c4 -3 0 -17 -9 -31 -31 -47 -46
-134 -48 -272 -1 -164 3 -184 46 -200 62 -22 161 -24 237 -5 39 9 71 21 71 25
0 4 11 11 24 14 13 3 31 9 40 12 9 3 16 1 16 -5 0 -6 -7 -11 -17 -11 -9 0 -13
-3 -10 -7 9 -9 -38 -33 -98 -49 -71 -21 -212 -18 -272 4 -48 17 -48 18 -55 72
-9 84 -8 260 2 308 6 23 14 60 19 82 11 54 35 82 54 63z m-4540 -677 c32 -7
65 -20 75 -28 9 -9 32 -20 50 -26 74 -25 187 -174 208 -276 13 -62 10 -86 -10
-86 -7 0 -21 -8 -32 -18 -22 -20 -131 -88 -184 -114 -59 -30 -182 -68 -217
-68 -31 0 -32 -2 -21 -20 7 -11 18 -20 24 -20 6 0 22 -10 36 -22 37 -34 27
-32 200 -30 l117 2 25 53 c28 56 56 153 56 192 0 13 4 26 9 29 14 9 19 -29 10
-76 -5 -23 -12 -59 -15 -78 -7 -36 -39 -99 -58 -112 -6 -4 106 -8 249 -8 143
0 292 -5 330 -10 89 -13 192 -38 227 -56 15 -8 35 -11 45 -8 14 5 15 4 4 -4
-11 -8 -9 -11 10 -18 13 -4 31 -7 39 -5 8 2 12 -1 7 -5 -4 -4 0 -16 10 -26 18
-20 38 -25 27 -6 -11 17 50 -27 67 -49 8 -10 -1 -5 -20 10 -45 37 -51 26 -11
-20 18 -20 47 -67 64 -103 28 -59 31 -76 34 -183 5 -136 -11 -220 -63 -333
-42 -91 -72 -135 -142 -207 -73 -74 -152 -127 -252 -168 l-79 -32 38 -28 c71
-52 121 -140 160 -282 36 -134 121 -542 127 -612 7 -96 -2 -103 -141 -117
-141 -13 -299 1 -328 29 -16 17 -31 80 -74 319 -57 318 -81 417 -97 407 -6 -3
-7 -1 -3 5 8 13 -15 54 -58 99 -44 48 -104 64 -226 61 l-102 -3 -84 -415
c-101 -502 -89 -456 -119 -476 -36 -24 -212 -37 -315 -24 -47 6 -92 12 -100
13 -8 1 -16 12 -17 27 -1 14 23 147 53 295 30 149 57 286 59 305 3 19 11 64
20 100 48 209 64 304 54 321 -7 14 -6 17 4 13 16 -6 41 113 30 142 -4 11 -3
15 4 11 12 -8 38 137 27 154 -4 7 -3 9 3 6 11 -7 14 5 38 133 8 41 32 163 53
270 22 107 43 211 46 231 l6 36 -52 6 c-29 3 -71 11 -93 19 l-39 13 0 180 c0
209 4 239 40 309 12 23 12 31 2 37 -7 5 -19 2 -29 -7 -8 -7 -20 -14 -25 -14
-13 0 -173 -107 -206 -137 l-27 -26 25 -66 c14 -36 29 -70 34 -75 14 -14 12
-26 -3 -26 -17 0 -56 78 -64 125 -3 19 -8 35 -12 35 -9 0 -4 162 7 190 5 14
12 41 16 61 4 21 13 42 21 49 8 7 15 18 15 25 0 6 9 20 20 30 11 10 20 24 20
32 0 7 6 13 14 13 8 0 16 6 19 14 3 8 19 21 37 29 26 14 34 14 58 2 235 -117
229 -113 319 -202 35 -34 63 -67 63 -72 0 -22 -26 -10 -44 19 -34 59 -53 64
-147 38 -81 -23 -84 -25 -85 -53 -1 -17 -8 -45 -17 -62 -23 -43 -21 -59 8 -85
14 -12 25 -26 25 -31 0 -6 15 -23 33 -39 27 -25 38 -28 67 -23 19 4 39 11 45
16 5 5 17 9 27 9 28 0 80 29 72 41 -3 6 1 29 9 52 26 73 40 209 32 324 -4 60
-11 113 -16 120 -13 14 -96 33 -149 33 -47 0 -163 -26 -207 -45 -61 -29 -70
-10 -10 22 71 38 224 52 320 29z m3315 -703 c182 -183 220 -211 264 -197 10 3
18 14 18 25 0 21 16 26 23 7 5 -17 26 56 23 79 -2 10 -1 12 1 5 4 -10 9 -8 19
7 9 12 12 25 9 31 -3 6 1 7 9 4 9 -3 16 -2 16 3 0 29 87 33 668 33 l590 0 10
-28 c13 -38 -10 -195 -39 -262 -36 -84 -11 -80 -469 -80 l-406 0 -52 -257
c-29 -142 -52 -264 -52 -271 0 -10 71 -13 343 -13 414 -1 383 1 383 -23 -1
-13 8 -23 24 -28 l25 -8 -27 4 c-25 3 -26 1 -33 -63 -8 -82 -40 -179 -68 -208
l-20 -23 -349 0 c-270 0 -350 -3 -353 -12 -5 -13 -106 -508 -119 -581 l-7 -37
424 2 c278 2 424 0 424 -7 0 -36 5 -45 26 -46 l22 -2 -22 -4 c-19 -4 -23 -11
-23 -42 0 -56 -37 -190 -63 -228 l-22 -32 -600 -3 c-330 -2 -609 -7 -620 -11
-13 -6 -16 -6 -7 1 10 7 7 13 -14 27 -24 15 -26 16 -21 1 4 -9 3 -16 -1 -16
-4 0 -9 30 -10 68 -2 60 16 168 63 392 7 36 24 115 36 175 12 61 25 127 29
147 6 27 5 36 -4 31 -6 -4 -6 -1 2 9 14 18 104 447 98 465 -3 6 -2 13 3 15 10
4 83 376 76 388 -3 4 -2 10 3 12 8 3 73 318 72 348 0 12 -2 12 -9 2 -13 -21
-75 -26 -108 -8 -34 18 -113 92 -113 106 0 5 -6 10 -14 10 -8 0 -17 6 -19 13
-4 9 -8 8 -17 -3 -10 -13 -11 -12 -6 3 4 14 -27 51 -123 148 -71 71 -135 129
-143 129 -18 0 -38 -20 -38 -37 0 -21 148 -163 171 -163 32 0 42 -43 29 -133
-15 -105 -36 -171 -64 -204 l-24 -28 -413 -5 -413 -5 -53 -260 c-29 -143 -53
-263 -53 -267 0 -5 91 -8 202 -8 111 0 199 2 197 5 -3 2 -67 5 -142 6 -120 1
-137 3 -137 17 0 15 17 17 157 15 151 -3 183 -9 167 -35 -3 -4 14 -7 38 -7
l43 2 -35 7 c-29 6 -25 16 4 11 5 -1 12 2 15 8 4 6 75 11 174 12 129 1 167 4
167 14 0 8 5 15 11 17 9 3 8 9 0 23 -12 19 -23 20 -188 17 -122 -2 -173 0
-168 8 5 8 10 273 6 328 -1 7 -15 12 -36 12 l-35 0 0 -169 c0 -149 -2 -170
-17 -175 -9 -4 -79 -6 -154 -5 -114 1 -137 3 -132 15 4 11 34 14 137 15 72 1
134 1 139 0 4 0 7 2 7 7 6 100 3 313 -5 316 -5 3 24 4 65 5 51 0 68 -3 55 -9
-11 -5 -14 -9 -7 -9 9 -1 12 -35 12 -133 0 -194 -13 -178 149 -178 138 0 173
-8 194 -41 7 -11 6 -25 -3 -46 -15 -34 -68 -54 -113 -42 -27 7 -27 7 -21 -32
5 -32 4 -39 -10 -39 -12 0 -16 -10 -16 -37 0 -67 -46 -219 -73 -245 -1 -1
-164 -5 -361 -8 l-360 -5 -58 -290 c-31 -159 -60 -300 -63 -312 l-5 -23 422
-2 422 -3 6 -25 c17 -62 -31 -280 -69 -314 -14 -12 -106 -15 -628 -17 l-612
-2 -21 24 c-30 36 -34 64 -20 141 6 38 9 72 6 75 -3 4 -6 -4 -6 -16 0 -12 -4
-20 -8 -17 -24 15 -83 -19 -154 -89 -69 -67 -108 -91 -108 -67 0 10 56 52 70
52 5 0 10 5 10 11 0 14 55 69 69 69 6 0 11 6 11 14 0 11 52 27 84 25 13 -1 26
23 27 51 l1 25 8 -25 c4 -14 9 -18 9 -10 1 8 4 26 7 40 4 18 3 21 -4 11 -8
-11 -12 -10 -21 7 -6 11 -10 29 -10 39 1 17 2 17 6 1 2 -10 12 -18 21 -18 13
0 20 15 29 61 12 61 9 94 -8 83 -13 -8 -11 3 7 38 9 17 13 40 10 52 -5 21 -5
21 11 1 14 -18 15 -18 9 -2 -15 45 -18 67 -7 67 6 0 11 -10 12 -22 1 -25 28
75 29 105 0 27 -87 -65 -110 -116 -11 -23 -20 -56 -20 -74 0 -58 -11 -52 -133
76 -37 38 -56 51 -78 51 -57 0 -37 -36 91 -162 96 -96 120 -124 119 -146 0
-15 -3 -21 -6 -13 -3 7 -59 67 -124 131 -118 117 -119 119 -119 164 l0 46 43
0 c36 0 47 -5 77 -40 19 -22 40 -40 46 -40 6 0 17 -11 24 -25 15 -28 45 -30
45 -3 0 32 58 125 92 148 18 12 33 29 33 38 0 11 3 12 14 3 11 -9 16 4 30 73
9 47 14 97 11 113 -4 23 -4 24 4 8 8 -16 10 -16 10 -4 1 9 4 32 7 50 4 23 3
30 -4 21 -12 -18 -25 55 -12 77 7 13 10 10 15 -14 4 -17 8 -34 9 -38 1 -4 47
223 104 505 56 282 100 524 97 538 -5 22 -4 23 5 5 9 -17 10 -15 7 12 -2 18 0
30 4 27 4 -2 6 16 5 41 -2 24 1 42 5 39 5 -3 6 -17 3 -32 -4 -16 -3 -23 2 -17
58 65 60 68 37 61 -12 -4 -24 -2 -29 5 -5 8 -3 9 5 5 7 -5 18 0 27 10 10 14
14 15 12 4 -2 -10 3 -14 17 -11 11 3 281 7 600 11 319 3 574 6 568 8 -7 1 -21
10 -31 20 -10 9 -27 22 -38 28 -25 14 -88 108 -75 112 5 2 7 10 4 18 -3 8 1
14 10 14 8 0 18 7 21 15 12 33 90 -27 274 -212z m-3761 -33 c12 -22 20 -40 18
-40 -19 0 -35 17 -35 35 0 13 -3 26 -7 28 -5 3 -6 -20 -4 -50 5 -93 -31 -247
-70 -297 l-20 -26 -379 0 c-352 0 -379 -1 -384 -17 -2 -10 -28 -135 -56 -278
-28 -143 -54 -270 -57 -283 l-5 -22 348 0 c192 0 355 0 362 0 7 0 17 -12 22
-26 6 -15 15 -23 22 -19 7 4 6 1 -3 -7 -9 -8 -18 -37 -22 -73 -8 -76 -41 -186
-66 -217 l-19 -23 -358 -5 -358 -5 -86 -429 c-70 -350 -89 -431 -105 -442 -37
-27 -101 -37 -237 -37 -111 1 -138 -2 -138 -13 0 -8 -4 -14 -10 -14 -5 0 -10
5 -10 10 0 6 -4 10 -10 10 -5 0 -10 -9 -10 -19 0 -17 4 -19 32 -10 51 14 56
11 13 -11 -46 -23 -88 -26 -104 -6 -13 15 -24 149 -12 141 5 -3 5 11 1 31 -5
20 -6 52 -4 71 3 22 -1 45 -10 59 -15 21 -22 23 -159 26 -129 3 -145 5 -165
24 -27 25 -22 68 8 84 10 6 86 10 169 10 l151 0 0 163 c1 207 17 188 22 -26
l3 -157 -157 0 c-86 0 -163 -3 -172 -6 -10 -4 -16 -18 -16 -36 l0 -29 168 3
c92 2 176 8 187 13 18 8 18 7 7 -7 -10 -12 -14 -64 -15 -186 l-2 -170 23 0
c12 0 22 7 22 14 0 8 -4 14 -10 14 -5 0 -10 5 -10 11 0 5 4 7 10 4 5 -3 18 -1
27 4 16 9 16 10 -4 11 -14 0 -23 6 -23 15 0 8 -4 15 -8 15 -5 0 6 71 24 158
17 86 29 161 26 166 -2 5 -6 36 -7 70 -3 82 -7 90 -15 36 l-8 -45 2 45 c1 29
5 44 13 43 8 -2 11 12 8 45 -9 125 -9 156 3 160 17 5 25 -42 19 -111 -4 -42
-3 -55 3 -39 5 12 12 22 15 22 4 0 4 -4 1 -8 -2 -4 -7 -26 -9 -47 -16 -133
-14 -136 12 -15 33 151 46 237 32 205 -8 -17 -10 -17 -10 -3 -1 9 6 21 14 25
8 5 17 27 20 48 3 22 14 78 25 125 23 100 130 641 136 685 2 17 15 82 29 145
14 63 24 128 21 145 -4 18 -3 25 3 17 5 -9 16 29 30 105 12 65 27 126 32 136
5 10 7 23 3 29 -4 7 -3 8 4 4 8 -5 11 0 9 15 -1 12 4 23 11 25 7 1 8 0 2 -3
-5 -2 -10 -9 -10 -14 0 -6 17 3 37 18 l36 28 581 5 c320 3 583 6 586 8 3 1 15
-16 27 -38z m3837 -344 c75 -68 -10 -249 -149 -316 -70 -35 -199 -35 -267 -2
-65 32 -135 113 -154 180 -16 53 -13 89 6 77 6 -4 8 -10 5 -15 -9 -15 25 -100
53 -132 34 -39 38 -43 85 -73 70 -46 225 -45 279 3 10 8 15 18 13 22 -3 5 4 6
15 3 14 -4 24 3 37 26 10 17 21 31 26 31 4 0 7 8 7 17 0 9 7 24 15 33 8 9 18
44 21 78 l7 62 -31 0 c-28 0 -32 -4 -37 -37 -17 -99 -58 -157 -133 -186 -73
-29 -192 -15 -192 23 0 16 33 50 50 50 6 0 10 5 10 11 0 7 11 22 25 35 31 28
31 32 3 36 -13 2 -3 6 23 9 25 2 59 1 75 -2 25 -6 26 -7 5 -8 -24 -1 -141
-108 -141 -129 0 -11 34 -22 72 -22 42 0 111 38 137 75 12 18 29 57 36 87 13
47 43 88 66 88 4 0 19 -11 33 -24z m1987 -1157 c31 -31 13 -76 -62 -147 -95
-91 -123 -132 -114 -171 4 -17 13 -31 21 -31 8 0 14 -4 14 -10 0 -32 93 23
141 84 11 14 37 33 57 43 20 9 39 20 42 24 11 15 88 13 113 -4 15 -9 31 -17
37 -17 5 0 10 -4 10 -8 0 -5 8 -17 19 -28 10 -11 26 -37 36 -57 16 -34 16 -44
5 -98 -12 -56 -19 -66 -109 -158 -106 -108 -126 -122 -170 -119 -25 2 -31 8
-39 39 -6 22 -6 43 0 53 14 25 28 9 21 -25 -4 -21 -1 -34 8 -40 21 -13 39 -11
39 6 0 8 7 15 15 15 18 0 20 16 3 23 -7 3 -1 6 13 6 28 1 79 45 79 67 0 8 7
14 15 14 8 0 15 5 15 10 0 6 6 10 13 10 14 0 44 46 68 104 20 50 6 104 -39
151 -36 37 -75 48 -133 39 -32 -5 -55 -22 -116 -81 -65 -63 -83 -75 -120 -80
-37 -5 -48 -2 -68 17 -14 13 -25 30 -25 37 0 8 -4 11 -10 8 -15 -9 -12 8 10
59 11 26 26 46 35 46 8 0 15 4 15 8 0 8 27 37 83 86 15 14 27 29 27 33 0 5 9
14 20 21 34 21 18 78 -19 65 -27 -10 -201 -186 -222 -225 -34 -67 -19 -134 44
-191 36 -33 64 -41 121 -35 40 5 114 48 125 72 2 5 21 26 41 46 21 21 35 42
32 46 -4 4 8 4 27 0 18 -3 41 -6 50 -6 10 0 27 -9 39 -20 26 -24 30 -81 7
-104 -8 -8 -15 -17 -15 -19 0 -7 -150 -151 -161 -155 -5 -2 -9 2 -9 8 0 13
110 120 122 120 5 0 8 5 8 11 0 7 11 22 25 35 32 29 32 57 0 78 -39 25 -56 20
-120 -40 -102 -95 -126 -108 -194 -101 -33 3 -70 12 -83 21 -42 29 -36 16 16
-39 29 -30 59 -67 67 -82 7 -15 18 -31 24 -35 6 -4 10 -54 10 -115 0 -90 -4
-114 -20 -142 -11 -18 -24 -42 -30 -53 -15 -28 -144 -110 -186 -118 -48 -9
-151 5 -197 27 -20 9 -62 43 -94 75 -32 32 -63 58 -68 58 -6 0 -10 6 -10 13 0
8 -11 24 -25 37 -25 23 -25 23 -40 4 -8 -10 -15 -22 -15 -27 0 -4 -11 -25 -25
-47 -29 -46 -31 -87 -6 -150 13 -32 28 -50 52 -62 19 -10 28 -18 20 -18 -8 0
-12 -2 -9 -5 3 -3 26 0 52 7 37 10 43 14 29 20 -13 6 -11 7 7 3 14 -2 66 1
117 7 66 8 117 8 185 0 99 -11 222 -45 250 -69 10 -9 25 -12 40 -8 19 5 20 4
8 -5 -11 -9 -12 -13 -2 -17 25 -10 5 -155 -28 -195 l-18 -23 -74 37 c-40 20
-97 43 -127 52 -78 23 -223 21 -294 -3 -213 -74 -351 -284 -351 -536 0 -119
19 -170 82 -227 47 -43 90 -58 187 -65 74 -6 189 12 180 28 -3 5 0 6 8 3 11
-4 19 19 35 98 11 57 25 120 30 141 l10 37 -124 0 c-121 0 -125 1 -133 23 -10
25 1 104 19 137 6 11 8 25 5 30 -4 6 93 9 252 9 l258 0 2 -29 c3 -44 -104
-569 -122 -596 -32 -49 -249 -104 -415 -104 -117 0 -238 24 -323 65 -98 46
-185 159 -206 268 -21 107 -27 166 -18 160 5 -3 7 27 5 70 -3 42 -1 74 3 72
11 -7 19 67 9 84 -8 14 -9 14 -10 1 0 -8 -8 0 -17 18 -12 25 -18 30 -25 20 -6
-8 -8 5 -4 36 3 27 10 54 15 60 4 6 9 25 9 41 2 39 20 99 21 69 1 -24 31 -87
31 -66 0 7 5 10 11 7 6 -4 8 -13 5 -21 -3 -8 1 -14 9 -14 16 0 20 -15 7 -24
-10 -6 -34 13 -55 44 l-17 24 0 -36 c0 -20 5 -40 10 -43 6 -3 10 -14 9 -23 0
-13 -3 -12 -11 6 -6 12 -15 22 -20 22 -13 0 -9 -43 7 -64 8 -11 16 -18 18 -15
1 2 9 16 17 32 7 15 17 27 22 27 5 0 2 -13 -7 -30 -18 -34 -18 -40 -5 -40 6 0
10 6 10 14 0 23 65 151 104 206 21 29 34 55 30 58 -4 4 -9 1 -11 -6 -3 -6 -9
-10 -14 -6 -5 3 -9 -1 -9 -8 0 -8 -5 -5 -11 5 -8 14 -8 22 1 30 8 9 10 8 4 -6
-5 -13 -2 -16 10 -11 9 3 16 11 16 16 0 7 5 6 14 -1 10 -8 16 -8 25 2 6 8 7
17 3 21 -4 4 -2 6 3 4 6 -2 34 17 63 41 44 38 50 46 39 60 -10 14 -10 14 5 3
14 -12 24 -9 65 14 26 16 50 32 51 36 2 5 8 6 12 3 5 -3 11 -1 15 5 3 5 -4 12
-17 15 -29 8 -67 81 -75 144 -4 38 0 58 19 99 24 50 24 51 5 54 -20 3 -20 3
-2 18 11 9 16 10 11 3 -5 -9 0 -13 14 -13 12 0 18 5 15 10 -3 6 -1 10 5 10 7
0 9 7 6 15 -3 10 1 18 12 22 9 3 25 15 34 27 14 17 18 18 18 5 0 -9 -8 -20
-17 -23 -13 -5 -2 -21 54 -75 39 -38 75 -75 79 -83 14 -21 65 -53 117 -73 85
-32 215 -6 277 55 30 30 68 95 75 127 4 18 11 35 16 38 14 9 11 70 -6 101 -8
16 -15 37 -15 47 0 26 -29 62 -136 171 -56 57 -89 98 -84 105 5 9 10 8 20 -4
7 -8 19 -15 26 -15 8 0 14 -9 14 -20 0 -11 6 -20 14 -20 10 0 9 8 -6 39 -17
34 -18 46 -8 107 11 72 9 68 113 174 117 118 151 136 188 99z m-381 -349 c0
-5 -10 -10 -22 -12 -15 -2 -24 -11 -26 -25 -2 -16 23 -48 102 -125 60 -61 111
-120 120 -142 18 -43 22 -151 6 -161 -5 -3 -10 -14 -10 -23 0 -19 -58 -82 -76
-82 -7 0 -14 -4 -16 -10 -5 -16 -110 -23 -156 -11 -33 9 -66 35 -152 119 -61
60 -110 111 -110 115 0 20 28 -1 104 -78 46 -47 86 -85 90 -85 4 0 18 -11 32
-24 28 -26 103 -40 156 -29 100 20 167 188 103 257 -14 15 -25 32 -25 38 0 6
-43 53 -95 105 -103 102 -116 132 -75 173 18 18 50 18 50 0z m-7546 -96 c9 -3
14 -9 12 -13 -2 -3 11 -17 29 -31 19 -14 36 -33 38 -42 3 -10 13 -21 22 -24
22 -9 65 -52 65 -65 0 -5 7 -12 16 -16 21 -8 64 -51 64 -64 0 -5 7 -12 16 -16
38 -14 116 -124 107 -151 -3 -7 -18 -19 -34 -28 -40 -20 -54 -11 -164 100
-132 133 -122 130 -117 33 4 -78 2 -88 -28 -153 -24 -50 -46 -80 -81 -109 -27
-22 -51 -48 -55 -57 -4 -12 12 -35 51 -73 51 -51 56 -59 50 -88 -9 -41 -25
-57 -65 -66 -22 -4 -34 -13 -36 -25 -4 -25 -26 -47 -50 -48 -27 -1 -74 19 -74
33 0 14 -56 70 -64 62 -3 -3 -9 3 -13 13 -9 24 -66 79 -115 110 -59 38 -159
28 -202 -20 -69 -78 -89 -138 -61 -190 8 -15 15 -33 15 -38 0 -6 50 -59 110
-119 84 -84 110 -115 110 -135 0 -27 -33 -64 -56 -64 -21 0 -84 33 -84 44 0 5
-21 30 -48 55 -26 25 -69 70 -95 98 -26 29 -56 57 -66 63 -11 5 -23 19 -26 30
-3 11 -12 20 -20 20 -15 0 -27 48 -14 56 5 3 9 0 9 -6 0 -13 118 -130 131
-130 5 0 9 -4 9 -8 0 -13 183 -192 195 -192 6 0 20 6 30 14 18 13 18 15 -9 47
-15 19 -71 78 -125 133 l-96 98 0 87 c0 88 4 99 49 139 10 9 29 28 42 41 20
21 34 25 108 29 61 3 86 1 86 -7 0 -6 10 -15 21 -20 12 -4 71 -57 130 -117 93
-93 111 -107 126 -98 38 24 26 44 -94 163 -97 97 -128 121 -169 135 -75 25
-142 23 -205 -6 -50 -23 -139 -101 -139 -121 0 -5 -7 -23 -15 -40 -8 -18 -15
-50 -17 -71 l-3 -39 -46 45 c-44 42 -71 88 -52 88 4 0 14 -9 21 -20 7 -12 17
-18 22 -15 6 3 10 -1 10 -9 0 -9 7 -16 15 -16 8 0 15 8 15 18 0 9 9 28 20 42
11 14 20 30 20 35 1 21 74 88 123 113 46 24 63 27 155 27 56 0 102 1 102 2 0
7 -60 59 -64 55 -3 -3 -9 4 -13 14 -9 25 -59 75 -67 67 -3 -3 -9 2 -12 12 -4
10 -19 30 -33 46 -53 57 -52 55 -35 95 17 41 151 179 216 221 39 26 49 28 148
28 79 0 112 -4 124 -15 16 -12 19 -12 27 3 13 22 29 22 29 0 0 -20 361 -383
380 -383 13 0 40 25 40 37 0 13 -46 63 -58 63 -6 0 -19 13 -28 29 -10 16 -28
35 -41 42 -13 7 -31 25 -40 40 -9 14 -29 34 -44 43 -16 10 -29 21 -29 26 0 4
-14 21 -31 37 -31 27 -46 44 -81 85 -14 16 -24 18 -50 13 -29 -7 -31 -6 -19 9
14 16 47 21 75 10z m3721 -364 c-3 -5 -2 -10 3 -10 5 0 27 -26 48 -57 l39 -58
-3 -100 c-1 -54 -7 -104 -12 -109 -6 -6 -10 -17 -10 -26 0 -21 -44 -63 -54
-53 -5 5 6 -20 23 -54 58 -115 51 -251 -20 -393 -91 -181 -262 -269 -521 -270
-93 0 -107 -2 -112 -17 -3 -10 -22 -103 -42 -206 -31 -159 -40 -190 -58 -199
-12 -7 -68 -13 -126 -14 l-106 -2 1 76 c0 42 2 67 4 56 2 -10 48 201 102 471
54 269 96 491 94 494 -3 2 -5 -3 -5 -12 0 -9 -4 -17 -9 -17 -12 0 -12 78 0 86
5 3 9 18 9 33 0 18 8 34 22 43 20 13 21 17 9 32 -12 14 -12 16 0 11 8 -3 18 4
24 17 6 13 25 27 45 33 21 6 35 16 34 25 0 8 8 25 19 37 26 29 68 16 122 -37
22 -22 46 -40 53 -40 7 0 12 -7 12 -15 0 -8 6 -15 13 -15 8 0 7 -4 -3 -11 -11
-7 13 -9 85 -7 55 2 91 2 80 0 -11 -3 19 -13 67 -22 66 -14 98 -26 127 -49 33
-26 40 -28 45 -15 3 9 12 14 20 11 9 -4 12 0 9 13 -3 10 0 21 6 24 6 4 12 37
13 74 1 64 1 65 8 22 7 -44 7 -43 8 20 2 73 -14 128 -46 165 -12 14 -19 25
-16 25 4 0 -6 10 -21 22 -26 20 -28 21 -41 4 -7 -10 -18 -16 -25 -14 -8 3 -6
9 5 21 19 18 92 24 81 7z m3130 -175 c26 -34 22 -78 -10 -99 -14 -10 -49 -15
-96 -16 -41 0 -85 -1 -99 -1 -15 0 -19 -3 -10 -6 17 -7 30 -23 30 -38 0 -6 -3
-5 -8 1 -13 20 -57 38 -92 37 -28 -1 -29 0 -7 4 15 2 25 9 21 15 -4 6 1 6 14
-1 15 -8 28 -7 52 5 21 11 57 16 105 16 65 -1 73 1 82 20 26 60 -44 90 -158
67 -57 -11 -147 -63 -158 -91 -1 -5 -12 -18 -24 -29 -21 -19 -21 -19 49 -19
38 0 75 -4 83 -9 15 -10 19 9 -159 -874 -33 -163 -64 -306 -70 -317 -22 -42
-49 -50 -166 -50 -104 0 -113 2 -135 24 -15 15 -37 64 -57 128 -18 56 -37 110
-42 118 -10 16 -7 -134 5 -213 8 -50 15 -55 100 -63 60 -5 75 -10 75 -24 0
-12 -86 -5 -136 11 -51 16 -62 37 -69 124 -4 44 -11 93 -15 108 -7 20 -6 26 2
21 7 -5 9 0 6 14 -3 12 -3 37 2 56 9 42 2 88 -13 79 -5 -3 -7 -1 -4 4 4 6 -1
32 -10 59 -10 28 -19 42 -21 32 -2 -9 -9 -15 -16 -12 -7 3 -33 -11 -59 -31
-54 -41 -64 -26 -17 23 17 18 30 27 30 22 0 -6 10 -2 22 9 11 11 25 18 30 15
13 -8 10 8 -16 87 -39 119 -96 325 -96 345 0 42 -12 -2 -30 -112 -38 -233
-159 -807 -172 -815 -32 -20 -197 -23 -216 -4 -6 6 13 115 48 280 10 50 26
128 35 175 9 47 25 126 35 175 49 238 72 366 66 380 -3 9 -2 14 3 11 5 -3 14
22 21 56 10 45 10 63 2 66 -6 2 -8 10 -5 18 5 13 7 13 14 2 6 -9 9 -7 9 9 0
12 8 27 18 32 14 9 14 12 4 19 -19 13 8 23 39 15 12 -4 20 -2 16 3 -3 5 37 8
95 6 55 -2 98 0 95 5 -3 4 7 9 21 10 25 1 26 0 7 -13 -10 -8 -14 -14 -8 -14 6
0 20 -3 30 -6 15 -5 16 -4 3 6 -12 9 -10 10 10 4 33 -9 60 -33 59 -53 0 -10
-4 -8 -9 7 -10 24 -36 39 -48 28 -3 -4 0 -11 7 -15 13 -8 247 -699 271 -803 7
-27 16 -46 20 -41 8 8 30 137 30 173 0 12 -4 18 -10 15 -5 -3 -10 3 -10 14 0
22 16 29 22 10 2 -6 27 107 56 251 41 205 50 265 41 276 -7 8 -9 17 -5 21 3 3
6 1 6 -6 0 -28 18 2 24 40 9 54 23 79 44 79 15 0 15 2 2 10 -12 8 -11 10 7 10
12 0 24 8 27 18 7 20 89 92 105 92 6 0 11 4 11 9 0 23 91 41 184 36 50 -3 62
-7 81 -30z m-5991 -145 c32 -11 65 -25 72 -31 7 -6 17 -8 22 -5 5 3 17 -3 27
-14 10 -11 15 -20 10 -20 -4 0 -13 8 -20 17 -11 15 -12 10 -8 -28 6 -54 -21
-157 -43 -166 -8 -3 -45 10 -82 28 -56 28 -81 34 -148 37 -68 3 -88 0 -123
-17 -54 -28 -81 -72 -81 -134 0 -42 5 -53 38 -87 37 -39 150 -111 136 -88 -4
7 7 0 24 -16 18 -17 35 -25 43 -21 7 5 10 4 6 -2 -4 -6 6 -19 22 -30 37 -23
73 -67 102 -123 21 -39 24 -59 24 -145 0 -93 -2 -104 -34 -167 -57 -115 -165
-195 -312 -232 -85 -21 -237 -21 -309 0 -30 9 -65 17 -77 18 -13 0 -23 4 -23
7 0 4 -14 12 -30 19 -40 17 -50 37 -50 102 0 51 27 128 48 142 6 3 41 -10 78
-29 37 -20 74 -33 82 -30 7 2 11 1 8 -4 -16 -25 145 -40 219 -20 58 16 120 82
129 137 11 75 -29 128 -156 201 -59 34 -73 39 -87 29 -14 -11 -14 -11 -3 4 12
15 10 19 -16 32 -15 8 -34 22 -41 30 -7 9 -18 13 -24 9 -6 -3 -7 -1 -3 5 4 7
-2 21 -13 33 -11 12 -23 35 -27 52 -3 16 -9 25 -13 19 -4 -6 -8 35 -9 90 -2
56 -6 106 -9 112 -3 5 -1 6 5 2 8 -4 12 0 12 11 0 10 10 38 22 63 12 25 22 56
22 69 1 13 8 26 16 28 9 3 11 1 5 -4 -5 -4 -11 -15 -13 -23 -2 -8 8 -2 22 15
13 16 22 34 18 39 -3 5 2 7 11 3 18 -7 24 8 8 17 -14 9 -43 -5 -38 -18 3 -7
-4 -12 -14 -12 -14 0 -15 3 -7 14 21 25 48 34 64 21 12 -10 20 -8 42 8 15 11
44 26 64 33 21 8 33 17 28 20 -6 4 2 7 17 8 15 0 51 5 78 11 73 15 220 5 289
-19z m3205 19 c-23 -15 9 -29 38 -18 14 5 109 9 213 9 119 0 190 4 193 10 3 6
4 5 3 -2 -2 -8 26 -18 81 -29 155 -32 233 -120 241 -273 8 -150 -46 -284 -153
-384 -107 -101 -198 -133 -391 -140 l-142 -4 -36 -187 c-45 -228 -43 -219 -69
-232 -32 -18 -199 -22 -221 -6 -16 12 -16 18 5 117 13 58 23 124 24 147 0 22
3 39 6 37 5 -3 21 70 53 240 1 6 8 36 14 66 7 30 35 170 63 310 27 140 57 265
65 278 15 22 14 26 -5 45 l-20 22 26 2 c19 1 22 -1 12 -8z m-2569 -24 c10 -12
10 -24 2 -53 -16 -53 -82 -387 -82 -413 0 -21 3 -22 68 -16 37 4 138 7 224 7
l158 0 7 28 c4 15 7 44 7 65 0 20 3 37 6 37 4 0 12 30 19 68 7 37 22 111 32
165 11 54 17 101 15 106 -7 10 2 11 129 17 61 3 116 0 124 -5 12 -8 -5 -104
-103 -598 -65 -323 -123 -599 -129 -613 -13 -27 -55 -38 -155 -39 -69 -1 -92
11 -92 50 0 17 -4 28 -9 25 -13 -8 -4 -40 29 -113 30 -65 120 -164 177 -196
l31 -17 -5 96 c-7 118 11 124 20 7 10 -117 11 -118 72 -133 79 -19 196 -9 278
24 38 16 71 25 75 22 9 -10 -21 -36 -47 -41 -13 -2 -28 -8 -35 -13 -6 -5 -46
-15 -88 -21 -91 -15 -238 1 -238 25 0 8 -9 13 -24 12 -26 -2 -156 79 -156 97
0 5 -12 21 -27 35 -25 24 -63 99 -63 125 0 7 -4 15 -10 17 -13 4 -22 256 -9
263 5 4 9 15 9 26 0 11 7 27 15 35 8 9 15 24 15 35 0 10 4 19 8 19 5 0 15 12
22 28 7 15 15 22 17 15 2 -7 -9 -38 -25 -70 -36 -69 -52 -133 -52 -202 0 -45
10 -65 23 -43 3 4 19 79 37 167 17 88 38 182 46 209 8 29 11 52 5 55 -5 3
-109 4 -231 1 l-223 -5 -50 -253 c-43 -219 -53 -254 -71 -264 -11 -6 -67 -13
-124 -14 -99 -2 -102 -2 -108 21 -3 12 6 79 21 149 14 69 24 130 21 135 -4 5
-2 11 2 13 4 1 48 205 98 453 65 327 94 455 107 467 24 25 218 26 237 3z
m1245 -19 c-4 -34 -231 -1158 -240 -1187 -8 -23 -43 -32 -152 -35 -90 -3 -93
-2 -99 21 -3 12 2 62 11 110 l16 88 -45 44 c-39 38 -48 42 -66 33 -16 -9 -20
-8 -20 5 0 8 8 15 18 15 13 0 14 2 4 9 -8 5 -12 16 -10 25 2 12 15 5 55 -31
28 -27 56 -57 62 -68 10 -19 11 -19 13 5 1 14 3 34 3 45 1 11 5 27 8 35 19 53
26 111 17 136 -6 15 -8 40 -5 56 6 25 4 28 -19 28 -13 0 -28 5 -32 11 -3 6
-17 9 -30 6 -18 -3 -24 0 -24 13 0 23 27 33 34 14 3 -9 10 -12 16 -9 5 3 10 1
10 -4 0 -6 9 -11 21 -11 23 0 49 -22 50 -42 0 -7 18 75 40 182 22 107 37 203
35 213 -2 9 0 15 4 12 4 -3 21 62 36 144 23 126 31 151 48 160 12 6 71 10 132
9 l112 -1 -3 -31z m2597 22 c14 -12 3 -77 -106 -616 -82 -408 -126 -606 -136
-612 -38 -24 -225 -24 -240 0 -3 5 9 83 27 172 18 90 30 179 28 198 -4 28 -3
30 3 10 8 -23 9 -21 16 19 4 27 3 48 -4 55 -5 5 -10 15 -10 20 0 6 4 4 10 -4
12 -19 11 -23 55 194 27 129 34 181 26 189 -6 6 -11 16 -11 22 0 5 4 3 10 -5
5 -8 11 -12 13 -10 10 12 56 287 52 310 -5 22 -4 22 4 5 9 -18 10 -18 10 7 1
45 33 58 141 58 62 0 102 -4 112 -12z m-6043 -472 c17 -9 31 -20 31 -25 0 -4
11 -13 23 -20 13 -7 31 -30 40 -50 19 -41 23 -121 7 -121 -5 0 -10 -8 -10 -19
0 -10 -25 -44 -55 -76 -42 -45 -56 -54 -61 -42 -6 17 12 57 26 57 6 0 10 7 10
15 0 8 9 15 20 15 22 0 28 34 8 44 -7 3 -3 3 10 0 21 -5 22 -3 22 60 0 59 -3
69 -30 100 -33 38 -88 61 -132 57 -19 -2 -28 2 -28 12 0 20 76 15 119 -7z
m2927 -751 c-5 -20 -3 -23 11 -18 10 4 14 2 10 -4 -3 -5 -31 -15 -62 -22 -30
-7 -55 -15 -55 -19 2 -17 162 -110 242 -140 l56 -21 39 43 c21 24 46 56 56 70
17 24 47 36 47 19 0 -8 -35 -54 -65 -84 -8 -9 -15 -19 -15 -23 0 -14 -45 -45
-66 -46 -11 0 -34 6 -50 14 -16 8 -49 23 -74 34 -25 11 -62 32 -83 46 -21 14
-40 26 -43 26 -3 0 -11 6 -19 13 -30 28 -56 47 -65 47 -6 0 -8 11 -4 28 9 35
14 41 14 14 0 -23 19 -40 29 -25 3 6 19 13 35 17 31 8 56 28 56 45 0 6 3 11 6
11 3 0 3 -11 0 -25z m2326 -737 c13 -7 37 -25 53 -40 16 -16 33 -28 37 -28 5
0 8 -6 8 -14 0 -8 18 -27 40 -43 22 -15 40 -33 40 -40 0 -6 18 -24 40 -40 22
-15 40 -33 40 -40 0 -6 18 -24 40 -40 22 -15 40 -32 40 -38 0 -12 60 -61 92
-76 20 -8 35 -6 79 14 60 26 90 23 108 -12 25 -46 -46 -114 -132 -127 -49 -7
-127 10 -127 28 0 4 -7 8 -16 8 -9 0 -30 14 -47 32 -28 29 -31 30 -44 13 -7
-11 -13 -24 -13 -30 0 -15 -275 -295 -289 -295 -22 0 -10 -21 17 -31 34 -14
136 4 163 30 26 24 70 110 75 146 4 33 27 55 58 55 19 0 19 -1 -3 -13 -18 -9
-28 -26 -36 -64 -14 -61 -58 -133 -86 -140 -10 -3 -19 -9 -19 -13 0 -13 -59
-30 -102 -30 -58 0 -118 22 -118 42 0 10 4 18 8 18 7 0 206 197 300 295 34 36
2 72 -105 119 -50 22 -161 18 -212 -9 -74 -38 -141 -124 -141 -180 0 -14 -4
-25 -10 -25 -29 0 2 -144 45 -208 33 -50 128 -116 156 -109 10 3 19 1 19 -5 0
-6 24 -8 63 -5 92 8 104 11 130 35 13 12 29 22 35 22 7 0 12 7 12 15 0 8 6 15
13 15 24 0 73 103 82 175 7 45 9 50 25 40 7 -4 9 -27 6 -65 -8 -82 -9 -83 -87
-181 -39 -49 -119 -81 -218 -87 -60 -3 -90 -1 -95 7 -4 6 -16 11 -27 11 -10 0
-19 5 -19 10 0 6 -6 10 -12 10 -20 1 -83 61 -111 105 -20 33 -44 113 -40 135
1 3 4 39 7 80 4 41 11 77 16 78 6 2 10 10 10 17 0 8 24 39 53 69 45 47 61 58
115 71 60 16 215 18 206 4 -2 -4 10 -12 27 -19 17 -7 37 -19 45 -27 8 -8 14
-10 14 -4 0 10 -83 101 -92 101 -3 0 -48 44 -101 98 -86 86 -97 101 -97 133 0
56 30 73 82 47z m-3877 -82 c44 8 73 -9 83 -49 10 -38 -3 -56 -51 -66 -26 -6
-37 -3 -56 15 -20 18 -23 29 -18 58 3 20 2 36 -3 36 -14 0 -19 -13 -22 -63 -2
-26 -6 -47 -10 -47 -4 0 -5 17 -3 38 2 20 4 47 4 59 1 21 32 38 39 21 2 -5 19
-6 37 -2z m3965 -341 c17 -9 30 -13 30 -10 0 4 5 3 11 0 12 -8 -268 -295 -287
-295 -34 0 -47 138 -20 204 7 17 11 37 8 45 -3 10 0 12 12 8 9 -4 23 1 33 12
44 47 156 65 213 36z"/>
<path d="M8020 11101 c-108 -33 -200 -147 -200 -248 0 -18 -3 -33 -6 -33 -3 0
-45 41 -94 91 -78 81 -91 91 -114 85 -16 -4 -26 -13 -26 -24 0 -16 265 -291
450 -468 55 -53 62 -56 85 -46 14 6 25 16 25 21 0 5 -43 54 -96 108 -136 140
-139 144 -152 193 -18 71 2 144 52 188 10 9 29 28 42 41 20 21 34 25 108 29
61 3 86 1 86 -7 0 -6 10 -15 21 -20 12 -4 71 -57 130 -117 93 -93 111 -107
126 -98 37 23 25 44 -89 157 -84 85 -126 119 -165 135 -53 22 -133 28 -183 13z"/>
<path d="M7530 10663 c-53 -54 -105 -112 -114 -130 -25 -49 -21 -110 10 -155
44 -63 108 -82 197 -57 32 9 37 13 32 32 -5 16 -4 18 4 8 8 -12 14 -9 36 17
15 18 32 32 39 32 13 0 46 35 46 50 0 6 16 10 35 10 22 0 38 6 41 15 4 8 13
15 21 15 13 0 13 -3 3 -15 -10 -13 -8 -20 14 -41 49 -50 39 -73 -85 -200 -77
-79 -109 -119 -105 -130 3 -8 6 -18 6 -20 0 -2 7 -4 15 -4 8 0 15 6 15 13 0 9
2 9 8 0 5 -8 39 19 105 85 53 53 100 100 103 104 4 4 1 15 -7 24 -12 15 -11
16 9 10 21 -7 22 -5 22 58 0 56 -4 69 -27 97 -68 81 -163 78 -251 -8 -18 -18
-37 -33 -41 -33 -5 0 -11 -8 -13 -18 -6 -21 -65 -52 -98 -52 -12 0 -35 14 -52
32 -25 27 -29 38 -25 69 3 21 0 42 -6 48 -7 7 -4 8 10 5 13 -4 23 2 33 20 7
14 17 26 22 26 4 0 8 5 8 10 0 10 36 50 45 50 9 0 95 91 95 100 0 9 -32 30
-45 30 -4 0 -51 -44 -105 -97z"/>
<path d="M7262 10398 c-7 -7 -12 -18 -12 -25 0 -7 49 -60 108 -118 126 -123
149 -167 138 -261 -11 -96 -100 -184 -184 -184 -96 1 -119 14 -240 135 -82 83
-120 115 -138 115 -21 0 -24 -5 -24 -35 0 -19 4 -35 9 -35 4 0 53 -45 109
-100 129 -128 156 -144 247 -142 79 1 143 20 192 58 35 26 45 51 17 40 -15 -6
-15 -4 -3 10 8 10 15 12 17 5 7 -21 19 -10 43 40 18 40 24 69 24 123 0 77 -15
123 -55 171 -49 58 -212 215 -224 215 -7 0 -17 -5 -24 -12z"/>
<path d="M6828 9963 c-8 -10 -18 -25 -22 -33 -4 -8 -13 -26 -21 -40 -35 -60
-26 -201 15 -260 30 -42 231 -240 244 -240 15 0 36 20 36 35 0 7 -46 59 -102
117 -109 111 -131 136 -137 159 -23 87 -21 108 15 186 10 24 25 43 32 43 6 0
12 11 12 25 0 21 -5 25 -28 25 -16 0 -36 -8 -44 -17z"/>
<path d="M6390 9773 c-47 -17 -150 -110 -150 -136 0 -8 -7 -29 -16 -47 -22
-43 -14 -149 15 -207 27 -54 207 -233 269 -269 88 -50 269 -32 288 28 3 11 15
18 30 18 19 0 24 5 24 25 0 15 6 25 14 25 8 0 24 21 36 47 23 48 23 54 7 204
-1 13 -8 14 -34 9 -18 -5 -33 -5 -34 -1 -1 3 -5 -5 -9 -19 -4 -14 -6 -48 -3
-76 7 -64 -19 -118 -78 -165 -39 -30 -48 -33 -109 -33 -59 1 -73 5 -106 30
-61 47 -204 197 -210 222 -4 12 -10 22 -15 22 -5 0 -9 26 -9 59 0 43 5 65 20
84 11 14 20 32 20 40 0 9 14 21 30 29 31 13 38 24 19 30 -6 2 33 2 88 0 97 -3
99 -2 113 22 11 22 11 29 -4 51 -15 23 -22 25 -84 24 -37 0 -87 -8 -112 -16z"/>
<path d="M6127 9063 c5 -132 3 -157 -17 -228 -34 -120 -35 -129 -19 -121 8 3
22 9 31 12 13 5 16 14 13 33 -3 14 -2 20 1 14 8 -17 24 -16 65 5 46 23 129 84
129 94 0 4 10 8 23 9 12 0 16 3 10 6 -7 2 -13 14 -13 26 0 29 -32 117 -42 117
-4 0 -8 5 -8 11 0 21 -60 94 -98 119 -20 14 -43 31 -50 37 -7 7 -17 13 -21 13
-5 0 -6 -66 -4 -147z"/>
<path d="M5602 9114 c-46 -53 -87 -132 -101 -195 -11 -48 -15 -139 -5 -139 3
0 24 16 46 35 90 77 294 170 391 178 9 1 17 4 17 8 0 15 -117 89 -190 120 -75
33 -92 39 -104 39 -8 0 -32 -21 -54 -46z"/>
<path d="M5756 8734 c-8 -21 -8 -185 0 -263 7 -60 7 -61 44 -71 21 -6 59 -14
85 -19 46 -9 47 -8 42 15 -2 13 0 21 4 18 5 -3 9 2 9 11 0 26 29 78 58 104 15
13 21 20 15 17 -7 -4 -28 4 -46 18 -19 15 -37 26 -41 26 -8 0 -14 5 -85 74
-28 27 -53 58 -57 68 -7 22 -20 23 -28 2z"/>
<path d="M6295 7903 c-33 -164 -62 -306 -63 -317 -4 -18 4 -18 165 -13 181 5
237 17 324 70 77 46 121 93 101 106 -10 6 -9 11 3 21 13 11 15 10 9 -6 -5 -15
-2 -15 15 5 25 28 55 124 48 152 -3 10 -1 19 4 19 15 0 10 64 -8 89 -9 14 -11
21 -4 16 18 -11 4 36 -15 51 -7 6 -11 13 -8 16 9 10 -59 55 -109 72 -37 12
-89 16 -225 16 l-177 0 -60 -297z"/>
<path d="M3170 6523 c-69 -26 -110 -54 -189 -134 -58 -58 -91 -99 -91 -112 0
-29 489 -527 517 -527 23 0 53 29 53 51 0 16 -106 129 -121 129 -22 0 -5 31
44 76 65 62 117 127 117 148 0 9 5 16 10 16 6 0 10 33 10 80 0 44 -4 80 -8 80
-5 0 -15 18 -22 39 -30 92 -138 162 -247 160 -32 0 -65 -3 -73 -6z m131 -93
c36 -10 99 -61 99 -80 0 -6 5 -10 10 -10 5 0 9 -3 8 -7 -1 -5 2 -25 7 -46 13
-66 -16 -133 -90 -210 l-65 -68 -35 28 c-19 15 -35 31 -35 34 0 9 -172 179
-182 179 -4 0 -8 5 -8 10 0 6 -11 10 -25 10 -14 0 -25 5 -25 10 0 6 7 10 15
10 27 0 75 30 75 46 0 9 9 18 20 21 11 3 20 12 20 19 0 8 8 18 18 21 9 4 20
11 23 16 15 22 114 32 170 17z"/>
<path d="M3148 6374 c-50 -38 -98 -88 -98 -103 0 -11 206 -221 217 -221 3 0
27 23 54 50 64 66 92 122 84 163 -11 49 -36 97 -51 97 -7 0 -17 8 -23 17 -7
13 -27 19 -75 23 -62 5 -68 4 -108 -26z"/>
<path d="M6720 5697 c0 -2 -15 -80 -34 -173 -18 -93 -36 -184 -40 -203 l-6
-33 93 4 c114 6 170 30 221 95 40 51 57 101 58 171 3 107 -45 142 -194 142
-54 0 -98 -1 -98 -3z"/>
<path d="M7724 5498 l-39 -203 54 -3 c36 -2 57 1 62 10 7 11 9 10 9 -1 0 -28
112 10 168 58 40 34 76 129 77 197 0 116 -37 144 -193 144 l-100 0 -38 -202z"/>
<path d="M7979 3909 c-10 -20 6 -39 192 -226 112 -112 217 -211 234 -220 44
-24 147 -30 164 -9 7 9 20 16 27 16 8 0 14 5 14 10 0 6 7 10 15 10 10 0 15 10
15 30 0 40 -41 53 -68 22 -28 -34 -77 -41 -128 -17 -24 11 -48 29 -55 41 -6
12 -22 28 -36 35 -13 7 -31 25 -40 40 -9 14 -28 33 -42 42 -15 9 -33 27 -40
40 -7 13 -25 31 -40 40 -15 9 -33 27 -41 41 -7 14 -17 26 -22 26 -4 0 -29 23
-55 50 -51 54 -76 62 -94 29z"/>
<path d="M7990 3485 c-7 -8 -19 -15 -26 -15 -8 0 -14 -4 -14 -10 0 -5 -6 -10
-13 -10 -24 0 -57 -78 -57 -135 0 -30 5 -57 11 -60 11 -7 228 203 229 221 0
25 -111 32 -130 9z"/>
<path d="M11137 10650 c2 -9 -3 -22 -11 -29 -11 -9 -16 -31 -16 -68 0 -46 5
-61 30 -93 17 -21 30 -43 30 -49 0 -6 6 -11 13 -11 8 0 22 -9 32 -20 10 -11
24 -20 32 -20 7 0 13 -9 13 -21 0 -11 5 -17 10 -14 6 3 10 0 10 -7 1 -33 149
-94 165 -68 3 5 20 17 37 26 25 13 32 14 39 2 6 -8 7 -1 5 20 -3 32 -3 32 15
16 11 -9 19 -13 19 -7 0 5 -12 20 -27 34 -14 13 -24 20 -21 14 4 -5 -5 -11
-18 -11 -23 -2 -23 -1 -7 11 16 12 15 16 -19 53 -33 37 -37 38 -52 24 -15 -15
-18 -15 -36 4 -19 19 -19 20 -1 20 11 0 17 -5 14 -13 -3 -7 -1 -13 5 -13 40 0
-23 93 -66 97 -27 3 -28 -5 -4 -24 15 -13 15 -13 -6 -3 -12 6 -26 9 -30 6 -4
-2 -8 11 -8 29 0 25 3 32 15 27 10 -4 11 -7 3 -10 -21 -7 -13 -20 13 -18 l24
1 -32 33 c-17 18 -37 30 -45 27 -7 -3 -10 0 -6 6 3 6 -4 21 -17 35 -26 27 -48
33 -28 7 10 -13 8 -13 -10 2 -29 25 -70 28 -64 5z"/>
<path d="M10600 10287 c-60 -17 -150 -58 -150 -69 0 -4 8 -8 18 -8 28 0 175
-74 234 -118 29 -21 79 -67 110 -100 31 -34 60 -62 64 -62 11 0 -1 303 -14
326 -19 35 -181 54 -262 31z"/>
<path d="M10375 10154 c-73 -85 -104 -164 -119 -301 -2 -24 -1 -43 2 -43 4 0
21 14 39 30 18 17 36 30 40 30 5 0 19 10 33 23 34 31 205 113 255 122 22 5 55
8 73 9 17 1 32 4 32 8 0 24 -224 151 -286 163 -25 5 -34 0 -69 -41z"/>
<path d="M11100 9867 c-81 -71 -279 -165 -367 -174 -29 -3 -53 -9 -53 -14 0
-14 81 -65 190 -119 l103 -52 42 44 c59 61 101 150 118 247 17 100 13 109 -33
68z"/>
<path d="M12020 7911 c-14 -5 -40 -16 -58 -25 -47 -24 -222 -202 -222 -225 0
-25 506 -536 515 -521 4 6 13 9 20 6 17 -6 35 13 35 38 0 20 -94 126 -111 126
-23 0 -4 34 49 87 74 73 96 106 87 133 -7 21 10 29 18 8 3 -7 6 6 6 30 1 23
-3 42 -8 42 -5 0 -11 19 -14 43 -7 57 -25 136 -38 168 -13 32 -59 68 -99 76
-17 3 -33 10 -36 14 -6 11 -109 10 -144 0z m177 -119 c45 -28 83 -90 83 -136
0 -73 -22 -120 -91 -191 l-68 -70 -126 125 c-69 69 -128 127 -131 130 -3 2 -9
-2 -14 -10 -8 -12 -10 -12 -10 -1 0 7 36 49 79 92 63 62 88 80 123 87 57 13
104 5 155 -26z"/>
<path d="M12045 7785 c-22 -8 -47 -22 -55 -32 -8 -10 -34 -33 -57 -51 -37 -29
-41 -36 -30 -53 6 -10 17 -19 24 -19 7 0 13 -5 13 -11 0 -13 167 -179 180
-179 18 0 97 88 119 132 31 64 28 108 -11 156 -49 61 -115 81 -183 57z"/>
<path d="M3960 3625 c-14 -17 -6 -65 11 -65 6 0 95 -83 198 -185 102 -102 195
-191 206 -199 49 -33 188 -26 202 10 3 7 11 14 18 14 16 0 29 35 20 50 -10 16
-42 12 -82 -10 -47 -25 -79 -25 -118 -1 -16 10 -116 104 -222 210 -105 105
-198 191 -206 191 -8 0 -20 -7 -27 -15z"/>
<path d="M4164 3303 c-9 -14 -16 -15 -56 -5 -99 25 -184 7 -257 -53 -111 -94
-130 -277 -39 -383 l28 -33 0 28 c0 17 -8 33 -20 41 -11 7 -20 21 -20 31 0 11
-5 23 -11 27 -25 15 7 174 36 174 6 0 28 18 50 40 32 32 36 42 26 54 -10 12
-9 15 7 13 12 0 18 -6 15 -14 -3 -7 -1 -13 5 -13 6 0 12 5 14 12 7 19 168 17
195 -2 21 -15 19 -19 -128 -165 -142 -142 -151 -149 -165 -131 -11 16 -14 17
-14 4 0 -25 22 -36 70 -35 25 0 37 2 28 5 -24 5 -24 4 18 46 41 41 41 41 47
24 2 -7 3 -4 1 7 -2 12 7 27 22 38 24 18 24 18 24 -4 l0 -23 20 22 c11 12 20
26 20 32 0 5 7 10 15 10 8 0 15 5 15 10 0 6 7 10 15 10 8 0 15 7 15 15 0 8 4
15 8 15 5 0 15 12 22 26 8 14 27 33 42 42 15 9 28 25 28 35 0 21 -31 53 -61
62 -23 8 -25 23 -4 31 8 4 15 10 15 15 0 15 -14 10 -26 -8z"/>
<path d="M7607 3273 c-4 -3 -7 -83 -7 -176 l0 -170 -158 5 c-164 6 -192 1
-192 -32 0 -29 15 -33 116 -31 52 1 126 -1 164 -5 l70 -7 0 -168 0 -169 28 0
c35 0 45 9 31 27 -9 10 -8 13 2 13 12 0 13 25 9 137 -3 76 -4 144 -2 151 3 9
45 12 164 12 139 0 162 2 173 17 7 9 10 25 7 35 -4 18 -15 19 -173 16 -108 -2
-169 1 -170 7 -1 8 -9 313 -9 338 0 9 -44 9 -53 0z"/>
<path d="M3947 3188 c-63 -34 -103 -142 -78 -210 l8 -22 13 24 c13 26 77 90
90 90 11 0 120 107 120 118 0 28 -102 28 -153 0z"/>
<path d="M4260 3055 c-7 -8 -17 -37 -21 -63 -20 -104 -103 -172 -212 -172 -32
0 -67 5 -79 11 -27 14 -36 2 -12 -16 30 -23 84 -29 154 -17 49 8 66 8 73 -1 6
-8 7 -7 4 3 -2 8 2 23 10 32 12 14 19 15 35 5 16 -9 22 -9 25 1 3 7 10 18 17
25 41 41 70 163 46 192 -16 19 -24 19 -40 0z"/>
<path d="M6864 2775 c-58 -28 -244 -205 -244 -233 0 -24 506 -536 515 -522 4
6 13 9 20 6 17 -6 35 13 35 38 0 20 -94 126 -111 126 -23 0 -4 34 51 89 95 96
113 132 118 228 3 47 0 88 -5 95 -6 7 -13 25 -16 39 -10 38 -105 128 -145 135
-18 3 -35 10 -38 15 -3 5 -33 9 -67 9 -45 0 -76 -7 -113 -25z m214 -104 c70
-43 97 -124 70 -215 -20 -64 -168 -212 -168 -167 0 10 -216 226 -241 242 -11
6 4 26 63 83 61 58 87 77 120 84 58 13 104 5 156 -27z"/>
<path d="M6926 2665 c-22 -7 -49 -24 -61 -37 -12 -13 -38 -36 -58 -52 -30 -25
-33 -32 -24 -48 7 -10 17 -18 24 -18 7 0 13 -5 13 -11 0 -13 167 -179 180
-179 11 0 100 87 100 97 0 4 7 14 16 24 8 9 18 41 21 71 5 49 3 56 -28 95 -52
64 -114 84 -183 58z"/>
<path d="M13277 393 c-4 -3 -7 -17 -7 -30 0 -16 -6 -23 -20 -23 -11 0 -20 -7
-20 -15 0 -8 7 -15 15 -15 22 0 18 -21 -5 -27 -23 -6 -27 -33 -5 -33 11 0 13
-8 9 -30 -5 -23 -3 -30 9 -30 10 0 17 11 19 27 2 14 9 29 17 31 10 3 12 -3 9
-27 -6 -41 20 -43 29 -1 4 21 11 30 24 30 11 0 19 7 19 15 0 8 -7 15 -15 15
-8 0 -15 7 -15 15 0 8 9 15 20 15 11 0 20 7 20 15 0 8 -7 15 -15 15 -11 0 -13
8 -8 30 4 23 2 30 -9 30 -9 0 -18 -13 -21 -30 -4 -16 -12 -30 -18 -30 -7 0
-10 12 -7 30 4 28 -9 40 -25 23z"/>
<path d="M13721 374 c-27 -34 -26 -54 0 -89 18 -22 28 -26 50 -21 16 3 29 2
29 -3 0 -13 -36 -41 -53 -41 -9 0 -17 -7 -17 -15 0 -39 77 -5 97 42 42 101
-45 205 -106 127z"/>
<path d="M14047 383 c-28 -32 -30 -66 -6 -97 18 -23 27 -27 50 -22 16 3 29 2
29 -3 0 -13 -36 -41 -53 -41 -9 0 -17 -7 -17 -15 0 -17 18 -19 55 -5 56 21 72
144 25 182 -28 23 -62 23 -83 1z"/>
<path d="M14201 374 c-27 -34 -26 -54 0 -89 18 -22 28 -26 50 -21 16 3 29 2
29 -3 0 -13 -36 -41 -53 -41 -9 0 -17 -7 -17 -15 0 -39 77 -5 97 42 42 101
-45 205 -106 127z"/>
</g>
</svg>
