<?xml version="1.0" standalone="no"?>
<!DOCTYPE svg PUBLIC "-//W3C//DTD SVG 20010904//EN"
 "http://www.w3.org/TR/2001/REC-SVG-20010904/DTD/svg10.dtd">
<svg version="1.0" xmlns="http://www.w3.org/2000/svg"
 width="2000.000000pt" height="1333.000000pt" viewBox="0 0 2000.000000 1333.000000"
 preserveAspectRatio="xMidYMid meet">
<metadata>
Created by potrace 1.16, written by Peter Selinger 2001-2019
</metadata>
<g transform="translate(0.000000,1333.000000) scale(0.100000,-0.100000)"
fill="#000000" stroke="none">
<path d="M6165 12015 c-38 -7 -82 -18 -98 -24 -110 -43 -213 -105 -329 -198
-39 -30 -123 -88 -187 -128 -291 -181 -429 -303 -495 -437 -57 -114 -58 -235
-5 -324 30 -50 25 -62 -28 -69 -110 -16 -205 -82 -250 -173 -25 -51 -28 -68
-27 -152 0 -80 4 -104 26 -151 14 -31 42 -74 62 -96 20 -22 36 -45 36 -51 0
-6 -51 -45 -112 -88 -705 -486 -1212 -1005 -1572 -1609 -96 -162 -88 -147
-157 -285 -156 -315 -267 -677 -318 -1040 -43 -300 -41 -893 4 -1235 14 -108
19 -136 51 -300 47 -236 125 -487 229 -740 33 -79 166 -354 198 -410 7 -11 30
-52 51 -90 93 -166 311 -476 450 -640 160 -189 480 -507 666 -661 360 -300
756 -558 1225 -799 106 -55 169 -85 370 -175 79 -36 257 -111 285 -120 14 -5
50 -18 80 -30 78 -30 258 -95 375 -135 207 -70 733 -214 929 -255 364 -74 519
-102 786 -141 148 -21 166 -23 495 -58 649 -69 1464 -79 2186 -26 112 8 222
17 244 20 22 3 85 10 140 15 124 11 259 27 345 40 36 5 115 16 175 25 61 9
133 21 160 26 28 6 102 19 165 30 63 11 131 24 150 29 19 5 73 16 120 26 387
77 1072 275 1345 389 17 7 46 18 65 25 60 22 272 110 328 136 29 13 54 24 57
24 19 0 499 243 645 327 751 432 1401 1015 1832 1643 296 433 514 920 628
1405 59 251 62 272 90 550 26 253 28 813 4 1015 -18 157 -74 444 -105 545 -96
311 -210 584 -329 786 -18 29 -42 70 -52 89 -44 77 -138 218 -234 348 -346
468 -823 912 -1376 1281 -76 51 -140 96 -143 102 -4 5 6 31 22 57 38 61 52
112 54 192 4 175 -82 288 -249 327 -48 12 -72 22 -72 32 0 8 12 39 27 70 33
71 37 171 9 246 -44 117 -157 245 -312 352 -49 35 -94 67 -100 72 -6 5 -29 19
-50 30 -74 41 -172 106 -250 168 -196 156 -388 238 -528 227 -127 -10 -193
-62 -622 -486 -154 -153 -287 -278 -294 -278 -7 0 -74 16 -149 36 -75 19 -154
39 -176 44 -22 4 -94 20 -160 35 -66 14 -155 33 -197 41 -43 7 -115 21 -160
29 -222 42 -582 92 -893 124 -633 67 -1510 67 -2205 1 -270 -26 -694 -86 -925
-131 -27 -5 -75 -13 -105 -19 -73 -12 -258 -52 -417 -90 -139 -33 -160 -38
-273 -69 -41 -12 -86 -21 -100 -21 -19 0 -83 57 -270 243 -481 476 -526 512
-655 536 -32 6 -59 11 -59 10 -1 0 -32 -7 -71 -14z m136 -273 c98 -64 1023
-992 1241 -1245 260 -300 518 -716 729 -1174 41 -89 80 -173 131 -283 25 -52
53 -113 63 -135 10 -22 30 -67 46 -100 15 -33 51 -112 79 -175 29 -63 63 -139
76 -167 13 -29 36 -79 50 -110 14 -32 29 -67 34 -78 66 -143 317 -735 430
-1015 73 -180 161 -383 235 -545 12 -27 32 -70 43 -95 11 -25 35 -76 52 -115
151 -330 270 -647 329 -876 99 -385 72 -649 -83 -813 -91 -96 -212 -158 -382
-195 -161 -35 -948 -100 -1719 -142 -320 -18 -1010 -15 -1280 5 -330 24 -576
50 -975 102 -374 48 -560 81 -890 154 -315 70 -493 45 -625 -89 -27 -28 -53
-51 -57 -51 -17 0 -213 258 -320 420 -204 312 -392 739 -459 1045 -59 270 -73
396 -63 550 l9 130 58 11 c32 7 127 20 210 30 213 26 914 27 1152 1 404 -43
628 -79 1075 -172 128 -27 402 -97 625 -159 358 -101 862 -273 1146 -392 59
-24 109 -44 112 -44 8 0 275 -119 388 -174 86 -41 129 -55 129 -42 0 3 -11 31
-24 63 -107 255 -137 361 -172 603 -53 376 -71 809 -54 1332 7 213 10 440 6
504 -20 342 -114 726 -289 1184 -117 308 -143 353 -240 425 -33 24 -50 29
-115 32 -42 2 -121 -2 -175 -10 -82 -12 -114 -12 -198 -1 -122 16 -294 73
-462 153 -125 60 -230 99 -327 121 -30 7 -111 30 -180 51 -69 21 -161 43 -205
49 -281 35 -367 61 -424 125 -41 47 -44 106 -6 131 29 19 138 21 225 3 189
-37 266 -64 405 -139 115 -63 131 -63 335 9 133 47 199 52 258 22 20 -11 89
-75 153 -143 123 -130 199 -185 272 -198 46 -9 122 1 139 18 8 8 -64 85 -240
259 -311 309 -372 389 -372 488 0 50 19 98 66 172 68 107 36 110 -90 9 -50
-40 -98 -81 -105 -90 -22 -26 -47 -19 -86 27 -43 48 -58 79 -80 160 -14 52
-35 77 -35 42 0 -44 -22 -223 -30 -242 -6 -15 -18 -23 -34 -23 -30 0 -76 -17
-76 -28 0 -4 19 -16 43 -27 38 -18 42 -23 42 -57 0 -20 3 -39 6 -42 4 -4 33 9
65 29 76 45 117 53 159 31 45 -25 107 -150 92 -188 -3 -8 -60 -27 -138 -47
-74 -18 -150 -36 -170 -42 -20 -5 -45 -9 -57 -9 -75 0 -341 231 -445 387 -57
86 -65 118 -42 166 35 75 203 212 405 332 36 21 107 70 158 109 148 112 202
147 272 177 76 33 142 37 181 11z m7765 -19 c41 -20 122 -73 181 -118 58 -44
161 -115 228 -157 238 -148 372 -260 412 -343 21 -44 15 -65 -52 -165 -103
-152 -366 -380 -439 -380 -26 0 -219 44 -301 69 l-60 18 2 40 c4 85 71 173
131 173 26 0 88 -26 131 -55 19 -13 38 -22 43 -19 4 3 8 23 8 44 0 37 3 40 45
59 25 11 45 24 45 29 0 6 -22 13 -48 17 -26 3 -53 9 -58 13 -6 4 -17 65 -25
136 -8 71 -19 131 -24 133 -6 2 -19 -30 -29 -71 -15 -57 -30 -88 -63 -130 -24
-31 -51 -56 -60 -56 -9 0 -42 22 -72 48 -102 88 -170 135 -187 128 -14 -5 -13
-11 7 -44 76 -126 91 -165 86 -220 -3 -31 -17 -72 -32 -98 -46 -78 -196 -244
-395 -435 -104 -100 -190 -186 -190 -190 0 -17 45 -31 99 -32 98 -1 154 35
316 200 77 78 153 147 168 152 53 20 124 12 230 -25 226 -79 221 -79 377 0
120 61 192 87 305 111 90 19 241 31 278 21 54 -13 57 -105 4 -153 -53 -49
-165 -81 -372 -108 -81 -11 -175 -31 -250 -55 -66 -20 -145 -43 -175 -50 -101
-23 -201 -59 -293 -103 -145 -71 -183 -86 -294 -123 -144 -47 -226 -58 -353
-48 -58 4 -148 8 -200 8 -86 1 -99 -2 -135 -25 -89 -58 -138 -143 -246 -429
-154 -411 -230 -698 -279 -1065 -17 -119 -17 -409 -1 -680 14 -241 12 -433 -9
-785 -25 -418 -79 -747 -148 -915 -63 -152 -90 -231 -83 -238 4 -4 61 17 127
46 65 30 139 63 164 74 25 12 104 44 175 73 72 28 150 60 175 70 25 10 97 37
160 60 63 23 144 52 180 65 535 193 1341 414 1805 495 467 81 569 95 920 126
288 25 820 23 1064 -5 101 -12 201 -26 223 -31 37 -11 38 -12 38 -56 0 -144
-104 -767 -150 -894 -56 -159 -75 -206 -82 -215 -4 -5 -8 -15 -8 -22 0 -17
-126 -279 -175 -363 -92 -159 -201 -325 -303 -460 -83 -108 -206 -250 -216
-247 -6 2 -25 25 -43 51 -61 94 -116 138 -221 179 -50 19 -74 22 -197 21 -120
-1 -158 -6 -265 -32 -190 -46 -343 -76 -635 -122 -62 -10 -374 -50 -595 -76
-852 -100 -1456 -105 -2640 -19 -918 66 -1072 89 -1247 187 -116 65 -206 174
-243 295 -43 139 -36 357 20 587 26 112 98 344 119 391 6 11 30 74 56 140 25
66 52 134 60 150 7 17 23 53 35 80 31 71 47 108 96 214 24 51 44 95 44 96 0 2
18 43 40 90 22 47 40 88 40 90 0 1 18 42 41 90 22 48 72 166 111 263 39 98 79
196 89 219 11 23 19 44 19 47 0 3 11 29 24 58 13 29 63 148 112 263 48 116
105 247 126 293 21 46 38 85 38 87 0 3 92 212 151 344 30 66 194 424 268 584
16 34 43 94 61 132 251 547 499 953 774 1270 193 223 946 987 1155 1173 104
92 105 92 158 92 42 0 71 -8 129 -37z m-3211 -408 c522 -34 1036 -101 1460
-191 39 -8 90 -19 115 -24 198 -41 310 -71 310 -84 0 -6 -22 -33 -48 -61 -283
-299 -390 -427 -543 -650 -166 -240 -364 -597 -516 -930 -23 -49 -60 -130 -83
-180 -34 -73 -219 -475 -275 -600 -50 -109 -185 -417 -185 -421 0 -3 -11 -29
-24 -57 -13 -29 -31 -68 -39 -87 -8 -19 -31 -71 -50 -115 -19 -44 -83 -197
-142 -340 -151 -369 -240 -582 -270 -642 -14 -29 -25 -55 -25 -57 0 -3 -24
-56 -54 -118 -29 -62 -69 -151 -89 -198 -19 -47 -47 -111 -61 -143 -53 -114
-134 -325 -180 -467 -59 -180 -63 -190 -76 -190 -5 0 -12 12 -16 28 -20 87
-151 448 -213 584 -10 24 -31 72 -46 108 -15 35 -40 92 -55 125 -100 220 -165
364 -221 495 -27 63 -54 124 -59 135 -5 11 -19 45 -30 75 -11 30 -25 64 -30
75 -18 41 -110 265 -110 270 0 2 -11 29 -25 59 -14 30 -25 57 -25 60 0 3 -11
29 -24 58 -42 93 -62 140 -121 278 -54 127 -68 160 -114 263 -85 191 -117 260
-142 314 -16 34 -29 64 -29 67 0 2 -21 48 -46 103 -50 106 -96 204 -139 298
-174 379 -283 601 -383 775 -214 374 -420 653 -694 936 -59 61 -108 116 -108
123 0 6 12 16 28 22 32 12 352 86 436 100 33 5 62 12 66 14 8 5 314 61 400 74
287 41 361 52 480 65 232 26 447 45 660 56 113 6 232 12 265 14 141 8 849 -4
1070 -19z m4279 -1265 c701 -433 1249 -946 1628 -1525 83 -127 100 -155 179
-300 152 -280 280 -654 332 -970 30 -177 31 -194 12 -201 -9 -4 -81 0 -159 9
-267 31 -567 41 -851 28 -315 -15 -662 -47 -870 -81 -33 -5 -89 -14 -125 -20
-330 -53 -745 -143 -1130 -246 -55 -15 -65 -18 -170 -47 -252 -72 -567 -173
-800 -257 -253 -92 -270 -98 -403 -150 -31 -13 -60 -20 -64 -17 -3 4 1 53 10
109 15 100 26 186 48 408 17 170 23 946 9 1173 -19 305 14 609 96 897 9 30 20
73 25 94 32 131 192 566 254 691 23 46 3 43 246 30 100 -6 145 -4 219 10 148
27 313 85 519 182 111 52 145 64 261 93 47 11 135 36 195 55 61 18 153 38 205
45 52 6 124 17 160 24 36 8 71 14 79 15 7 0 50 -22 95 -49z m-9840 20 c33 -5
93 -14 131 -19 39 -6 111 -24 160 -40 50 -16 131 -39 180 -51 111 -26 153 -42
330 -123 154 -71 292 -118 429 -148 105 -22 280 -25 372 -5 33 7 69 10 80 6
21 -8 62 -90 114 -230 34 -90 38 -102 63 -165 81 -204 160 -492 204 -740 30
-167 31 -207 22 -1050 -4 -400 3 -576 36 -900 8 -77 19 -167 25 -200 23 -132
23 -125 0 -125 -11 0 -28 4 -38 9 -15 9 -172 72 -262 106 -170 65 -599 210
-780 264 -58 17 -119 36 -136 41 -72 24 -531 142 -618 160 -23 4 -117 24 -211
43 -751 157 -1484 208 -2090 147 -49 -5 -139 -14 -199 -21 -80 -9 -110 -9
-115 0 -13 20 22 261 60 419 229 955 897 1815 1940 2498 90 58 173 113 184
120 25 16 41 17 119 4z m4836 -5315 c148 -251 451 -394 905 -429 44 -4 127
-11 185 -16 479 -43 813 -66 1330 -91 365 -18 1189 -6 1455 20 376 37 511 52
775 87 63 8 151 19 195 25 44 5 105 14 135 19 30 5 98 16 150 25 98 17 358 70
514 105 160 36 275 23 327 -36 23 -26 79 -131 79 -148 0 -27 -289 -290 -460
-421 -36 -27 -67 -52 -70 -55 -10 -12 -256 -187 -345 -245 -243 -159 -503
-308 -740 -424 -156 -76 -356 -171 -361 -171 -2 0 -23 -9 -47 -19 -63 -29
-336 -138 -462 -183 -515 -187 -1077 -337 -1620 -432 -212 -37 -280 -47 -455
-71 -544 -73 -1046 -100 -1655 -91 -225 3 -437 8 -470 11 -33 3 -121 9 -195
15 -266 20 -526 49 -740 80 -192 29 -505 83 -631 111 -79 17 -172 37 -207 45
-115 24 -452 111 -577 148 -181 54 -629 209 -796 276 -775 311 -1421 691
-1969 1158 -91 78 -282 256 -323 301 l-38 42 22 39 c16 28 38 48 73 65 71 35
150 33 344 -9 246 -54 339 -73 447 -91 55 -9 125 -20 155 -25 30 -5 91 -14
135 -19 44 -6 204 -26 355 -45 255 -32 404 -48 715 -77 179 -17 1077 -23 1355
-10 431 21 576 30 1020 66 96 8 265 22 375 31 347 28 534 67 690 145 141 71
263 180 329 293 21 36 44 65 50 63 6 -2 27 -30 46 -62z"/>
</g>
</svg>
